<?xml version="1.0" encoding="UTF-8"?>
<svg xmlns="http://www.w3.org/2000/svg" version="1.1" viewBox="0 0 2011.86161 816.382">
  <!-- Generator: Adobe Illustrator 29.7.0, SVG Export Plug-In . SVG Version: 2.1.1 Build 138)  -->
  <g id="Logo">
    <rect x=".0001" y=".00202" width="2011.86142" height="816.37795" style="fill: none;"/>
    <g>
      <path d="M1794.27248,274.77274c-33.35704,0-60.5717,27.22791-60.5717,60.58522s27.21466,60.59047,60.5717,60.59047c33.34379,0,60.22394-27.23343,60.22394-60.59047s-26.88015-60.58522-60.22394-60.58522M1794.27248,368.37552c-18.38733,0-33.01204-14.97519-33.01204-33.01756,0-18.02636,14.6247-32.66731,33.01204-32.66731,18.02636,0,32.66983,14.64095,32.66983,32.66731,0,18.04237-14.64347,33.01756-32.66983,33.01756" style="fill: #fff;"/>
      <path d="M1572.43532,273.42503c-13.28,0-26.89392,2.7277-37.78821,7.14811-8.84082-5.11041-17.36341-7.14811-29.61338-7.14811-15.31494,0-30.95832,2.03771-47.97397,7.82183l-3.07519,1.01899v111.29463h30.28433v-91.21483c6.13989-2.03743,10.89729-2.72743,17.03442-2.72743,14.96967,0,19.39008,4.78142,19.39008,20.42507v73.51719h30.62409v-75.55489c0-6.80311-.337-11.23953-1.3397-15.31494,6.11312-2.03743,10.88929-3.07243,16.31737-3.07243,14.30672,0,20.77007,6.47412,20.77007,20.42507v73.51719h30.29537v-75.89989c0-14.96994-2.39071-23.81049-9.19382-31.31961-7.5036-8.16683-20.09084-12.91595-35.73146-12.91595" style="fill: #fff;"/>
      <path d="M1693.83457,369.58302c-20.1852,0-31.75348-12.52238-31.75348-34.41384,0-22.4142,11.70845-35.26005,32.04745-35.26005,4.22883,0,7.80275.4474,11.18816,1.4501,0,0,6.26657,1.77909,11.7758,6.09683l12.8108-21.98282c-6.97561-5.81669-15.20979-8.33933-17.99131-9.06162-7.87565-2.3667-19.40608-2.7277-19.40608-2.7277-36.4325,0-60.84659,25.2766-60.84659,62.81668,0,36.10654,23.16879,59.41554,59.11884,59.41554,0,0,24.0691,1.06729,40.23025-13.9239l-15.09111-19.37407c-8.18311,5.21832-13.84856,6.96485-22.08273,6.96485" style="fill: #fff;"/>
      <path d="M1298.96913,274.44402c-43.23672,0-63.30051,19.06108-63.30051,59.56623v59.55023h30.9597v-59.89523c0-20.42507,11.57763-33.01204,29.61062-33.01204,7.50222,0,13.27696,1.36371,17.36313,2.38243l7.14784-26.88291c-11.99273-1.725-21.78078-1.70871-21.78078-1.70871" style="fill: #fff;"/>
      <path d="M1436.29659,330.60884v62.95165h-41.51586c-28.59328,0-41.18024-2.04847-56.15267-11.908-12.94825-8.86207-20.08835-25.53521-20.08835-47.31351,0-29.95562,19.7337-60.23995,63.2994-60.23995,35.39612,0,54.45748,19.75108,54.45748,56.50981M1406.00122,333.99397c0-22.8075-8.85545-34.03075-26.53653-34.03075-18.05341,0-29.612,13.27696-29.612,33.34075,0,24.17177,11.55859,34.74255,37.43245,34.74255h18.71608v-34.05255Z" style="fill: #fff;"/>
      <path d="M1218.81746,330.59256v62.96793h-41.18024c-28.58638,0-41.19929-2.04847-56.15129-11.908-12.94162-8.86207-20.08946-25.53521-20.08946-47.31351,0-29.95562,19.73482-60.23995,63.29913-60.23995,35.39612,0,54.12186,19.75108,54.12186,56.49353M1187.50476,333.99397c0-23.13649-8.16821-34.03075-26.20257-34.03075-18.03547,0-29.612,13.27696-29.612,33.34075,0,24.17177,11.57653,34.74255,37.42444,34.74255h18.39013v-34.05255Z" style="fill: #fff;"/>
      <path d="M384.51061,326.86002h8.90139l-4.45009-11.53665-4.4513,11.53665ZM375.22159,338.18171l12.9626-30.85176h3.3705l12.9626,30.85176h-6.7844l-2.98161-7.73498h-11.62219l-3.02507,7.73498h-4.88242ZM406.37438,336.75585l-.51809-5.5745c2.96592,2.50588,6.09248,3.75941,9.376,3.75941,1.8718,0,3.28352-.36834,4.2339-1.10258,1.81989-1.40367,1.81648-3.87686.49635-5.44409-1.12353-1.33162-3.08166-2.14729-7.75535-4.38618-4.14697-1.98657-6.22168-4.88252-6.22168-8.68418,0-2.64958.90693-4.75933,2.72198-6.33049,3.98209-3.44425,10.55227-2.13049,11.21279-2.00831,1.25233.22946,2.46961.59054,3.65066,1.07963l.51805,5.31486c-1.41168-1.00838-2.7292-1.74263-3.95253-2.20395-4.21053-1.58207-8.70699-.51429-8.70699,3.1121,0,1.7669,1.14075,2.98455,3.4997,4.18934,5.42399,2.73661,7.9778,3.80329,9.91701,6.24473,2.37322,2.99114,2.49621,8.78417-1.31752,11.7963-1.98774,1.57114-4.73991,2.35491-8.25292,2.35491-4.6068,0-7.6915-1.43783-8.90136-2.11701ZM435.75599,338.18171v-27.09356c-2.53152.05005-5.19848.23245-9.24679.73547l.34539-4.49367h23.72131l.34661,4.49367c-5.11598-.6352-7.87003-.70737-9.29024-.73547v27.09356h-5.87629ZM466.60643,335.11334c4.79868,0,9.15981-3.84237,9.15981-12.35786,0-.70661.17599-7.54377-4.29914-10.84588-1.36823-1.00718-2.98887-1.51197-4.86068-1.51197-6.407,0-9.15985,5.95041-9.15985,12.35786,0,8.46287,4.33584,12.35786,9.15985,12.35786ZM466.60643,338.87273c-9.21096,0-15.55541-6.68361-15.55541-16.11725,0-9.55176,6.40924-16.11605,15.55541-16.11605,9.12239,0,15.55537,6.54159,15.55537,16.11605,0,9.43328-6.34419,16.11725-15.55537,16.11725ZM486.91369,338.18171v-30.85176h3.19776l18.45009,20.9563v-20.9563h4.36433v30.85176h-3.24125l-18.4066-21.00098v21.00098h-4.36433ZM529.35873,338.18171l3.4574-30.85176h3.15431l10.9749,21.51787,10.58601-21.51787h3.1531l3.45743,30.85176h-6.26514l-1.7716-19.05545-8.64176,17.80192h-2.85241l-8.77097-17.58697-1.77156,18.8405h-4.70972ZM576.06587,326.86002h8.90136l-4.45009-11.53665-4.45127,11.53665ZM566.77684,338.18171l12.9626-30.85176h3.3705l12.96256,30.85176h-6.7844l-2.98161-7.73498h-11.62219l-3.02503,7.73498h-4.88242ZM604.71346,321.37248c.8357.14491,1.65569.21617,2.46352.21617,5.02758,0,6.26521-2.89182,6.26521-5.4006,0-3.7836-2.67614-5.35833-6.52481-5.35833-.69197,0-1.42624.04347-2.20393.12921v10.41354ZM598.8372,338.18171v-30.59212c1.71469-.21387,3.777-.38885,6.91361-.38885,2.76543,0,5.16984.32366,7.21552.97095,2.96847.94275,6.48132,3.06513,6.48132,7.71323,0,1.93103-.59777,3.65193-1.7933,5.1627-1.19554,1.51317-2.85963,2.58678-4.98992,3.22079l10.84451,13.9133h-7.12987l-9.67787-13.17905h-1.98774v13.17905h-5.87625ZM630.76846,338.18171v-27.09356c-2.53153.05005-5.1985.23245-9.24682.73547l.34539-4.49367h23.72135l.34657,4.49367c-5.10345-.63413-7.86445-.70726-9.29024-.73547v27.09356h-5.87625ZM649.95311,307.32947h5.87633v30.85176h-5.87633v-30.85176ZM661.8778,338.18171v-30.85176h3.19655l18.45127,20.9563v-20.9563h4.36437v30.85176h-3.24129l-18.4066-21.00098v21.00098h-4.36429Z" style="fill: #fff;"/>
      <path d="M907.96119,271.23275c-1.99356-3.52586-5.91214-5.54819-10.74969-5.54819h-303.46651c-5.12102,0-12.85998,0-20.90649,8.04575-2.63462,2.63513-4.09829,5.2522-5.38781,7.56124-2.49751,4.46708-4.3021,7.69465-12.60059,7.69465h-44.21601c-8.29849,0-10.10215-3.22756-12.59874-7.69418-1.29044-2.30951-2.75412-4.92657-5.38874-7.56171-8.04559-8.04575-15.78548-8.04575-20.90742-8.04575H168.27362c-4.83754,0-8.75612,2.02232-10.75061,5.54911-1.98986,3.51753-1.73603,8.01564.67903,12.03157l5.46933,9.11898c2.94588,5.04423,6.83111,5.82472,9.66953,6.39491,2.57718.51739,4.1335.83005,6.12521,4.31654l4.80975,8.46309c3.7296,6.92296,8.22531,7.77385,11.50746,8.395,2.52863.4732,4.91307.69023,8.11877,6.52553,3.12652,5.69224,7.85198,14.29475,19.31312,17.70991,1.13018.3298,113.08015,32.97553,113.22096,33.01675,11.78731,3.82116,14.88181,8.17177,18.56461,13.61987,2.18532,3.22756,7.98908,11.8009,22.38314,15.67508l107.66176,29.09203c11.51692,3.10625,18.80201-2.53054,22.1571-5.49584l19.52712-18.48948c2.68372-2.54152,4.3688-3.53184,6.01034-3.53184,1.64247,0,3.32662.99032,6.01126,3.53184l19.53175,18.49133c3.38114,2.98761,10.67041,8.59032,22.15525,5.49399l107.66176-29.09203c14.39406-3.87465,20.19874-12.44798,22.38314-15.67555,3.66021-5.37761,6.68049-9.76609,18.56276-13.61895.14266-.04169,112.0917-32.68742,113.22373-33.01722,11.46114-3.41562,16.18752-12.01767,19.31312-17.70991,3.06816-5.58709,5.36743-6.01416,7.80195-6.46624,3.23806-.60596,7.96343-1.28763,11.82243-8.45244l4.81161-8.46494c1.99171-3.48649,3.54803-3.79869,6.12521-4.31654,2.83842-.56973,6.7218-1.35022,9.66768-6.39399l5.47119-9.11991c2.41414-4.01639,2.66797-8.51451.67811-12.0325ZM700.69426,296.17906v53.15258h-335.90687v-53.15258h335.90687ZM580.21789,427.42865c-8.29039,0-11.15299-7.10143-13.25758-12.68266-2.39635-6.3548-15.71428-48.1461-19.38716-59.62623h16.55358c9.01729,15.13916,25.2793,42.32389,32.38521,53.46181,1.26576,1.98351,4.86061,8.15627,11.40732,11.93244-25.52802,6.89826-24.88449,6.91464-27.70138,6.91464ZM619.39985,416.70881c-9.27978,0-14.15275-7.17004-17.11453-11.81161-6.08399-9.52576-19.85774-32.45457-30.18808-49.77744h18.39165c11.59563,12.33093,36.1417,38.35752,45.78939,48.00543,1.45684,1.45685,4.57654,4.77103,9.08054,7.2717-22.3689,6.04469-22.47406,6.31192-25.95898,6.31192ZM657.01284,406.68271c-7.229,0-12.2884-4.79479-15.89163-8.40035-8.49572-8.49589-28.68661-29.84667-41.22763-43.1626h20.11796c12.79696,9.4076,42.32298,31.04548,53.91409,38.96723,2.13722,1.46065,6.31924,4.03047,11.23101,5.55555-25.95732,7.01975-25.40129,7.04017-28.1438,7.04017ZM704.36376,386.68393c-3.33214,4.92694-5.78235,7.36701-11.40197,7.36701-5.16669,0-10.75388-2.59907-15.17178-5.61848-9.61372-6.57032-31.73571-22.7043-46.20536-33.31269h23.93954c29.34718,14.65924,41.67054,21.1943,50.10096,23.64936,1.51558.44138,2.90621.74677,4.22.93872-2.18527,2.21343-3.74233,4.45104-5.4814,6.97609ZM713.27503,373.11673c-6.71552,0-15.43841-4.43874-42.45189-17.99697h26.17332l36.68636,9.36258c2.499.65121,4.80452,1.19982,6.94394,1.65102-20.55388,5.99459-23.67361,6.98337-27.35173,6.98337ZM784.99382,353.19517c-21.69526,6.33378-25.20355,7.71091-31.33808,7.71091-4.0887,0-9.47432-.76521-18.25254-3.05304l-.01691-.00435-28.904-7.37643v-10.32719l78.51153,13.05009ZM807.39854,346.66163c-6.92027,1.72689-13.34804,1.15503-23.51383-.59336l-.01894-.00315-77.38348-12.86292v-8.22394l126.53165,14.21366-25.6154,7.4697ZM855.10764,322.9224c-.97728,1.77919-1.95804,3.48765-3.03639,5.07758-4.40525,5.97521-7.12968,5.66524-20.69083,4.11649l-124.89813-14.03013v-7.74699l144.03047,8.44211c1.09438.0617,3.99667.25559,6.95941.43809-.78765,1.04539-1.57637,2.26754-2.36453,3.70285ZM879.60292,299.43178c-.02348.04312-2.6607,4.68182-4.02266,7.07804-4.17759,6.78659-6.2732,6.67959-18.48744,5.83338l-150.61053-8.86385v-6.24141h174.54503c-.48218.64876-.95727,1.37598-1.4244,2.19384ZM900.95037,279.45775l-3.95299,6.59135c-2.76297,4.33952-3.84919,4.33998-13.18217,4.33998h-313.55571c3.35886-3.82567,4.20704-7.83766,7.80193-11.43437,5.90499-5.90302,11.00846-5.88169,15.68357-5.88169l303.46651-.00046c2.09917,0,3.67401.65543,4.31877,1.79767.66143,1.17004.44466,2.8848-.57991,4.58751ZM500.82983,425.77566c1.30668-1.9182,2.52028-4.41622,4.10286-8.61307,2.45935-6.52174,16.24885-49.79309,20.16974-62.04283h15.28022c3.92091,12.24973,17.71041,55.52109,20.16976,62.04283,1.58265,4.19704,2.79628,6.69506,4.10301,8.61335-.46226-.35018-.92536-.72796-1.39053-1.13576l-19.43077-18.39772c-3.04593-2.8848-6.49854-5.55467-11.09059-5.55467-4.59113,0-8.04281,2.66941-11.08874,5.55421l-19.4354,18.39911c-.46481.40734-.92758.78475-1.38954,1.13456ZM457.56542,420.51401c6.54671-3.77618,10.14157-9.94894,11.40732-11.93244,7.10592-11.13792,23.36792-38.32264,32.38521-53.46181h16.55358c-3.67288,11.48013-16.99081,53.27143-19.38716,59.62623-2.10459,5.58123-4.96719,12.68266-13.25758,12.68266-2.81689,0-2.17336-.01638-27.70138-6.91464ZM420.12586,410.39689c4.504-2.50067,7.62369-5.81485,9.08054-7.2717,9.64769-9.64791,34.19376-35.67449,45.78939-48.00543h18.39165c-10.33034,17.32286-24.10409,40.25168-30.18808,49.77744-2.96178,4.64157-7.83475,11.81161-17.11453,11.81161-3.48491,0-3.59008-.26723-25.95898-6.31192ZM380.32805,399.64254c4.91177-1.52508,9.09379-4.0949,11.23101-5.55555,11.59112-7.92175,41.11713-29.55963,53.91409-38.96723h20.11796c-12.54102,13.31592-32.73191,34.66671-41.22763,43.1626-3.60323,3.60556-8.66263,8.40035-15.89163,8.40035-2.74251,0-2.18648-.02042-28.1438-7.04017ZM355.63953,379.70784c1.31379-.19195,2.70442-.49734,4.22-.93872,8.43042-2.45507,20.75378-8.99012,50.10096-23.64936h23.93954c-14.46965,10.60839-36.59164,26.74237-46.20536,33.31269-4.4179,3.01941-10.00509,5.61848-15.17178,5.61848-5.61961,0-8.06983-2.44006-11.40197-7.36701-1.73907-2.52504-3.29613-4.76265-5.4814-6.97609ZM324.85792,366.13336c2.13942-.4512,4.44495-.99981,6.94394-1.65102l36.68636-9.36258h26.17332c-27.01348,13.55823-35.73638,17.99697-42.45189,17.99697-3.67813,0-6.79785-.98878-27.35173-6.98337ZM359.0024,340.14508v10.32719s-28.904,7.37643-28.904,7.37643l-.01691.00435c-8.77821,2.28783-14.16383,3.05304-18.25254,3.05304-6.13453,0-9.64282-1.37714-31.33808-7.71091l78.51153-13.05009ZM232.47075,339.19193l126.53165-14.21366v8.22394s-77.38348,12.86292-77.38348,12.86292l-.01894.00315c-10.16579,1.74839-16.59356,2.32025-23.51383.59336l-25.6154-7.4697ZM208.01252,319.21955c2.96274-.1825,5.86504-.37639,6.95941-.43809l144.03047-8.44211v7.74699s-124.89813,14.03013-124.89813,14.03013c-13.56115,1.54875-16.28558,1.85872-20.69083-4.11649-1.07835-1.58993-2.05911-3.29839-3.03639-5.07758-.78816-1.43531-1.57688-2.65746-2.36453-3.70285ZM184.45737,297.23793h174.54503v6.24141s-150.61053,8.86385-150.61053,8.86385c-12.21424.84622-14.30985.95322-18.48744-5.83338-1.36196-2.39622-3.99917-7.03491-4.02266-7.07804-.46713-.81787-.94222-1.54509-1.4244-2.19384ZM163.95441,274.87024c.64476-1.14225,2.2196-1.79767,4.31877-1.79767l303.46651.00046c4.67511,0,9.77858-.02133,15.68357,5.88169,3.59489,3.59671,4.44307,7.6087,7.80193,11.43437H181.66948c-9.33298,0-10.4192-.00046-13.18217-4.33998l-3.95299-6.59135c-1.02457-1.70272-1.24135-3.41748-.57991-4.58751Z" style="fill: #fff;"/>
      <path d="M1001.96742,355.46659c0,67.78156.46186,68.33955,3.07313,157.03655h.57552c2.61081-88.68583,3.1051-93.87992,3.1051-161.46043,0-24.98937-.07504-91.2469-3.1051-194.17239h-.57647c-2.08467,70.86375-3.07217,102.41539-3.07217,198.59627Z" style="fill: #fff;"/>
      <g>
        <path d="M929.92844,587.96645h-5.18433l-31.55734,70.83388h12.06395c1.23762-4.21297,2.61883-9.03504,6.87377-19.78666h25.74695c3.14572,7.69581,5.5826,14.6063,7.43529,19.78666h15.05462l-30.43292-70.83388ZM925.03738,608.50791c7.63641,17.56622,7.73791,17.65825,9.54078,22.26575h-18.99549c2.00212-4.64013,2.0365-4.75121,9.45471-22.26575" style="fill: #fff;"/>
        <path d="M1410.86907,587.96645h-5.18433l-31.55734,70.83388h12.06395c1.23762-4.21297,2.61883-9.03504,6.87377-19.78666h25.74695c3.14572,7.69581,5.5826,14.6063,7.43529,19.78666h15.05462l-30.43292-70.83388ZM1405.97801,608.50791c7.63641,17.56622,7.73791,17.65825,9.54078,22.26575h-18.99549c2.00212-4.64013,2.0365-4.75121,9.45471-22.26575" style="fill: #fff;"/>
        <path d="M748.89059,658.8001c-1.81433-22.02814-3.11906-35.22622-4.10387-43.9528-11.89346,21.41705-17.06984,31.87739-21.87484,42.93174h-3.98483c-12.02583-24.56663-13.29198-26.94996-16.06609-32.16867-1.19739-2.2492-2.53276-4.75893-5.42966-10.37041-.51333,4.36627-2.69366,23.78506-4.12281,43.56014h-10.85697c3.44858-24.90574,8.88759-66.97919,9.20167-69.41794h6.43925c.97499,1.94646,1.92331,3.83925,2.84497,5.68422,7.95447,15.89946,14.23633,28.45582,21.85567,41.48341l.10922.18768.10547-.19154c3.4446-6.2973,6.56156-12.17504,9.57703-17.85937,4.67474-8.80889,9.5064-17.91866,15.91689-29.3044h5.7856c.25304,2.20313,4.18993,36.50605,8.25919,69.41794h-13.65587Z" style="fill: #fff;"/>
        <path d="M1512.69036,658.8001c-1.81643-22.02814-3.11906-35.22622-4.10387-43.9528-11.89346,21.41705-17.06984,31.87739-21.87484,42.93174h-3.98483c-12.02583-24.56663-13.29198-26.94996-16.06609-32.16867-1.19739-2.2492-2.53276-4.75893-5.43153-10.37041-.51146,4.36627-2.69366,23.78506-4.12094,43.56014h-10.85697c3.44858-24.90574,8.88759-66.97919,9.20167-69.41794h6.43925c.97499,1.94646,1.92331,3.83925,2.84497,5.68422,7.95447,15.89946,14.23633,28.45582,21.85567,41.48341l.10922.18768.10547-.19154c3.4446-6.2973,6.56156-12.17504,9.57703-17.85937,4.67474-8.80889,9.5064-17.91866,15.91689-29.3044h5.7856c.25304,2.20313,4.18993,36.50605,8.25919,69.41794h-13.65587Z" style="fill: #fff;"/>
        <path d="M571.83898,661.17302c-14.49522,0-22.9843-7.68435-25.06477-9.65385-5.89505-5.57313-10.99682-14.50656-10.99682-27.42693,0-12.92996,5.10949-21.86151,10.99682-27.42693,2.08047-1.96763,10.56581-9.65385,25.06477-9.65385,8.76855,0,25.70065,3.65532,33.0632,21.28667,1.98856,4.76279,2.99839,10.07726,2.99839,15.79411,0,12.92996-5.10949,21.86151-10.99682,27.42693-2.0807,1.96763-10.56581,9.65385-25.06477,9.65385M571.86775,652.91195c10.75922,0,21.65244-9.89906,21.65244-28.81971s-10.89322-28.81983-21.65244-28.81983h-.05753c-10.76132,0-21.65267,9.89918-21.65267,28.81983s10.89322,28.81971,21.65267,28.81971h.05753Z" style="fill: #fff;"/>
        <path d="M1030.46277,661.17302c-14.49522,0-22.9843-7.68435-25.06477-9.65385-5.89505-5.57313-10.99682-14.50656-10.99682-27.42693,0-12.92996,5.10949-21.86151,10.99682-27.42693,2.08047-1.96763,10.56581-9.65385,25.06477-9.65385,8.76855,0,25.70065,3.65532,33.0632,21.28667,1.98856,4.76279,2.99839,10.07726,2.99839,15.79411,0,12.92996-5.10949,21.86151-10.99682,27.42693-2.0807,1.96763-10.56581,9.65385-25.06477,9.65385M1030.49153,652.91195c10.76109,0,21.65244-9.89906,21.65244-28.81971s-10.89135-28.81983-21.65244-28.81983h-.05753c-10.75945,0-21.65267,9.89918-21.65267,28.81983s10.89322,28.81971,21.65267,28.81971h.05753Z" style="fill: #fff;"/>
        <path d="M620.24189,589.30183c3.7781-.24708,19.5722-.4081,19.72913-.40997,11.88387,0,16.53172,2.32392,20.54742,6.33752,3.74723,3.74734,5.73017,8.66717,5.58658,13.8515-.13611,4.8796-2.1822,9.64613-5.61534,13.07741-3.69578,3.69753-8.19395,5.36815-9.8455,5.96778l26.10313,30.65895-15.90122.00772-23.51681-28.98845-4.24934-.0421.02689,29.02095-12.86868.01333.00374-69.49465ZM638.33513,596.51295c-1.60362,0-3.34334.13412-5.16913.39851l-.10711.01532v24.52267l.1015.01906c1.84871.33536,3.62866.50585,5.2877.50585,10.41239,0,15.15425-6.6633,15.15425-12.85325v-.01532c.00374-.83923-.14757-5.19579-3.50798-8.5714-2.65718-2.66876-6.61348-4.02143-11.75922-4.02143" style="fill: #fff;"/>
        <polygon points="848.92819 658.78993 848.92819 589.35281 861.81207 589.35281 861.81207 649.58639 890.50152 649.59211 890.49568 658.78993 848.92819 658.78993" style="fill: #fff;"/>
        <path d="M1132.36989,658.8001c-2.95816-3.69168-23.61083-26.50737-43.38977-48.42816v48.42816h-10.03891v-69.41794h7.09057l42.70548,46.27099v-46.27099h9.97974v69.41794h-6.34711Z" style="fill: #fff;"/>
        <path d="M1284.17852,658.80314v-60.01515c-10.86095.10536-17.56447.90436-21.91343,1.3756v-10.78225h55.7526v10.81862c-3.27622-.40225-9.50055-1.27012-20.95341-1.40998v60.01316h-12.88575Z" style="fill: #fff;"/>
        <path d="M1167.1389,649.57493v-22.36526h24.78881v-8.445h-24.78881v-20.47831c5.81062,0,14.15027-.01906,28.27948.866v-9.79943h-41.16547v69.42379h42.3072v-10.19993c-9.33381.54035-20.09513.99814-29.42121.99814" style="fill: #fff;"/>
        <path d="M1339.9344,649.57493v-22.36526h24.78881v-8.445h-24.78881v-20.47831c5.81062,0,14.15027-.01906,28.27948.866v-9.79943h-41.16547v69.42379h42.3072v-10.19993c-9.33381.54035-20.09513.99814-29.42121.99814" style="fill: #fff;"/>
        <path d="M822.16322,589.35304c.46937,26.69329.24509,37.24179.24509,37.24179,0,8.67676-.52503,24.30225-17.31914,24.30225-5.94463,0-17.83809-.98282-17.83809-20.76562,0-17.93409.4406-39.96609.45791-40.77842h-13.53169c0,.87559.02128,21.12589.02128,40.71902,0,28.46155,22.92279,29.67227,28.63005,29.67227,16.42812,0,29.28534-7.48896,29.6186-30.21636l.09588-40.17493h-10.37989Z" style="fill: #fff;"/>
        <path d="M527.74598,599.24754h0v-9.8952h-42.23061v69.43724h12.88587v-29.82557h26.17212v-9.08298h-26.17212v-21.57982c12.97205,0,20.53175.36787,29.34474.94634" style="fill: #fff;"/>
      </g>
      <g>
        <polygon points="1208.22978 592.08375 1202.91935 592.08375 1202.91935 589.32139 1216.99544 589.32139 1216.99544 592.08375 1211.6315 592.08375 1211.6315 607.39462 1208.22978 607.39462 1208.22978 592.08375" style="fill: #fff;"/>
        <path d="M1235.3505,600.02007c-.11123-2.33355-.24887-5.14756-.22223-7.58837h-.08226c-.60874,2.19965-1.38223,4.63848-2.2111,6.9184l-2.71072,7.82965h-2.73175l-2.48848-7.72239c-.71787-2.3068-1.38223-4.7725-1.87998-7.02566h-.05538c-.08249,2.36043-.19349,5.22806-.33136,7.69563l-.41525,7.26682h-3.17972l1.24436-18.07323h4.51381l2.4331,7.26682c.66436,2.11915,1.24436,4.26319,1.71523,6.27519h.08249c.49774-1.95838,1.13313-4.1828,1.8531-6.30195l2.57074-7.24007h4.49488l1.07774,18.07323h-3.31736l-.35987-7.37408Z" style="fill: #fff;"/>
      </g>
    </g>
  </g>
  <g id="Guides" style="display: none; opacity: .2;">
    <g>
      <g style="opacity: .25;">
        <path d="M1141.47317,100.25381h-8.1394l4.06914,10.54907,4.07026-10.54907ZM1149.96702,89.9013l-11.85296,28.21073h-3.08197l-11.85296-28.21073h6.20363l2.72638,7.07284h10.62729l2.76611-7.07284h4.46447ZM1121.48102,91.2051l.47374,5.0973c-2.71202-2.29137-5.57094-3.43759-8.57338-3.43759-1.71157,0-3.00244.33681-3.87147,1.00819-1.6641,1.28351-1.66098,3.54499-.45386,4.97805,1.02735,1.21762,2.81786,1.96347,7.09147,4.01071,3.79197,1.81651,5.68909,4.46456,5.68909,7.94079,0,2.42276-.8293,4.35191-2.48897,5.78858-3.64121,3.14941-9.64896,1.94811-10.25293,1.83639-1.14512-.20981-2.2582-.53999-3.33815-.98721l-.47371-4.85989c1.29084.92205,2.49557,1.59345,3.61418,2.01529,3.8501,1.44664,7.96164.47026,7.96164-2.84569,0-1.61565-1.0431-2.72906-3.20012-3.83072-4.95967-2.50235-7.29487-3.47771-9.06808-5.71016-2.17006-2.73509-2.28253-8.03221,1.20474-10.7865,1.81759-1.43665,4.33415-2.15332,7.54644-2.15332,4.21244,0,7.03308,1.31475,8.13937,1.93579ZM1094.61459,89.9013v24.77425c2.31481-.04576,4.75347-.21255,8.45523-.67251l-.31583,4.10899h-21.69068l-.31694-4.10899c4.67804.58083,7.19632.64681,8.49496.67251v-24.77425h5.37326ZM1066.40505,92.70701c-4.3879,0-8.3757,3.51345-8.3757,11.29998,0,.64612-.16093,6.898,3.93111,9.91744,1.25111.92096,2.73302,1.38254,4.44458,1.38254,5.85854,0,8.37573-5.44103,8.37573-11.29998,0-7.73842-3.96468-11.29998-8.37573-11.29998ZM1066.40505,89.26943c8.42247,0,14.22381,6.11147,14.22381,14.73755,0,8.73409-5.86059,14.73646-14.22381,14.73646-8.34148,0-14.22378-5.9816-14.22378-14.73646,0-8.62576,5.8011-14.73755,14.22378-14.73755ZM1047.83617,89.9013v28.21073h-2.92402l-16.87069-19.16236v19.16236h-3.99073v-28.21073h2.96379l16.83093,19.20322v-19.20322h3.99073ZM1009.02458,89.9013l-3.16143,28.21073h-2.88429l-10.0354-19.67586-9.67981,19.67586h-2.88318l-3.16146-28.21073h5.72882l1.61994,17.42424,7.90199-16.27801h2.60823l8.02014,16.08146,1.61991-17.22768h4.30655ZM966.31575,100.25381h-8.13937l4.06914,10.54907,4.07022-10.54907ZM974.8096,89.9013l-11.85296,28.21073h-3.08197l-11.85292-28.21073h6.20363l2.72638,7.07284h10.62729l2.76607-7.07284h4.46447ZM940.1205,105.2716c-.76416-.13251-1.51396-.19766-2.25264-.19766-4.5972,0-5.72888,2.64427-5.72888,4.93829,0,3.45971,2.44705,4.89963,5.96626,4.89963.63273,0,1.30415-.03975,2.01526-.11815v-9.52211ZM945.49373,89.9013v27.97332c-1.56791.19557-3.45367.35556-6.32178.35556-2.5287,0-4.72728-.29595-6.59784-.88783-2.71436-.86205-5.92649-2.80275-5.92649-7.05295,0-1.76572.5466-3.33931,1.63979-4.72076,1.09319-1.38364,2.61483-2.36534,4.56277-2.94507l-9.91618-12.72227h6.51953l8.8494,12.05087h1.81759v-12.05087h5.37323ZM916.2959,89.9013v24.77425c2.31482-.04576,4.75349-.21255,8.45526-.67251l-.31583,4.10899h-21.69071l-.3169-4.10899c4.66658.57984,7.19123.64671,8.49496.67251v-24.77425h5.37323ZM898.75353,118.11247h-5.37329v-28.21073h5.37329v28.21073ZM887.84963,89.9013v28.21073h-2.92291l-16.87177-19.16236v19.16236h-3.99076v-28.21073h2.96382l16.83093,19.20322v-19.20322h3.99069Z" style="fill: #1fb095;"/>
        <path d="M662.83189,151.11919c1.82291,3.22404,5.40604,5.07324,9.82947,5.07324h277.48866c4.68264,0,11.75911,0,19.11682-7.357,2.40909-2.40956,3.74747-4.80259,4.9266-6.91397,2.28372-4.08468,3.93382-7.03596,11.52193-7.03596h40.43095c7.58811,0,9.23737,2.95127,11.52024,7.03553,1.17998,2.1118,2.51836,4.50484,4.92744,6.9144,7.35686,7.357,14.43418,7.357,19.11767,7.357h277.48781c4.42343,0,8.00657-1.8492,9.83032-5.07409,1.81952-3.21641,1.58742-7.32947-.62091-11.00162l-5.00114-8.33836c-2.6937-4.61242-6.24634-5.3261-8.84178-5.84748-2.35657-.4731-3.77965-.759-5.60087-3.94703l-4.39802-7.73862c-3.41033-6.33033-7.52119-7.10838-10.52238-7.67636-2.31217-.4327-4.4925-.63115-7.42378-5.96692-2.85888-5.20496-7.17982-13.07107-17.65985-16.19388-1.03343-.30157-103.40007-30.1527-103.52883-30.1904-10.77827-3.49406-13.60788-7.47224-16.97541-12.45396-1.99825-2.95127-7.30519-10.7907-20.46706-14.33324L1049.54426.82881c-10.53103-2.84035-17.19249,2.31391-20.26037,5.02538l-17.85552,16.90671c-2.45398,2.32396-3.99481,3.2295-5.49583,3.2295-1.50187,0-3.04185-.90554-5.49668-3.2295l-17.85976-16.9084c-3.0917-2.73186-9.75698-7.85495-20.25868-5.02369l-98.44552,26.60165c-13.16187,3.54297-18.46965,11.38239-20.46706,14.33366-3.34688,4.91726-6.10861,8.93008-16.97372,12.45312-.13045.03812-102.49624,29.88926-103.53136,30.19082-10.48003,3.12323-14.80181,10.98892-17.65985,16.19388-2.80552,5.10882-4.90796,5.49933-7.13408,5.91271-2.96087.55409-7.28173,1.17741-10.81039,7.72888l-4.39971,7.74031c-1.82121,3.18803-3.2443,3.47351-5.60087,3.94703-2.59544.52096-6.14639,1.23464-8.84009,5.84664l-5.00283,8.33921c-2.20748,3.67257-2.43958,7.78563-.62006,11.00247ZM852.35601,128.30837v-48.60252h307.152v48.60252h-307.152ZM962.51915,8.29423c7.5807,0,10.19825,6.49352,12.12268,11.59698,2.19122,5.8108,14.36908,44.02462,17.72755,54.52201h-15.13653c-8.24538-13.8432-23.11529-38.7008-29.61292-48.88528-1.1574-1.81371-4.44452-7.45806-10.43081-10.91098,23.34273-6.30775,22.75429-6.32272,25.33004-6.32272ZM926.69132,18.09641c8.48539,0,12.94122,6.55626,15.64946,10.80049,5.56317,8.71032,18.15784,29.67634,27.60387,45.5163h-16.81726c-10.603-11.27536-33.04784-35.07398-41.86965-43.89598-1.33213-1.33214-4.18477-4.36261-8.30321-6.64922,20.45404-5.52724,20.5502-5.7716,23.73679-5.7716ZM892.29814,27.26424c6.61017,0,11.23647,4.38434,14.53125,7.68125,7.76845,7.76861,26.23093,27.29169,37.69839,39.46772h-18.39579c-11.70149-8.60227-38.69997-28.38787-49.29885-35.63149-1.95427-1.33561-5.77829-3.68545-10.26959-5.07998,23.73528-6.41883,23.22685-6.4375,25.73459-6.4375ZM849.00063,45.55105c3.04689-4.50518,5.28736-6.73637,10.42592-6.73637,4.7244,0,9.83331,2.37658,13.87302,5.13752,8.79075,6.00788,29.01901,20.76073,42.25001,30.461h-21.89023c-26.83496-13.40436-38.10339-19.37999-45.81213-21.62489-1.38584-.4036-2.65743-.68284-3.85875-.85836,1.99821-2.02395,3.42197-4.07002,5.01217-6.37891ZM840.85219,57.95685c6.14064,0,14.11683,4.05876,38.81785,16.45636h-23.93279l-33.54587-8.5611c-2.28507-.59546-4.39323-1.09711-6.34951-1.50969,18.79439-5.48143,21.64706-6.38557,25.01032-6.38557ZM775.2728,76.17305c19.83807-5.79158,23.04604-7.05083,28.65543-7.05083,3.7387,0,8.66329.6997,16.69005,2.79169l.01546.00398,26.42971,6.74498v9.44314l-71.79065-11.93296ZM754.78601,82.1473c6.32787-1.57907,12.2054-1.05616,21.50096.54256l.01732.00288,70.75917,11.7618v7.51994l-115.70007-12.99692,23.42263-6.83027ZM711.16098,103.85435c.89362-1.62688,1.79042-3.18909,2.77646-4.64292,4.02814-5.46371,6.51935-5.18027,18.91962-3.7641l114.20639,12.8291v7.08382l-131.70093-7.71943c-1.00069-.05642-3.65454-.23371-6.36366-.40059.72023-.9559,1.44143-2.07343,2.16212-3.38587ZM688.76259,125.33409c.02147-.03943,2.43293-4.28104,3.6783-6.47213,3.81998-6.20563,5.73619-6.1078,16.90485-5.33402l137.71771,8.10507v5.70712h-159.60333c.4409-.59322.87533-1.25819,1.30246-2.00604ZM669.24256,143.59827l3.6146-6.02711c2.52645-3.96804,3.51969-3.96846,12.05373-3.96846h286.71419c-3.07133,3.49818-3.8469,7.16673-7.13406,10.45554-5.3995,5.3977-10.0661,5.37819-14.341,5.37819l-277.48866.00042c-1.91947,0-3.3595-.59932-3.94907-1.64378-.60481-1.06988-.4066-2.63785.53027-4.19481ZM1035.11131,9.80571c-1.19482,1.75399-2.30453,4.03818-3.75164,7.87576-2.24882,5.96345-14.85789,45.53062-18.44314,56.73173h-13.97217c-3.58526-11.20111-16.19433-50.76828-18.44315-56.73173-1.44717-3.83776-2.55691-6.12194-3.75178-7.87602.42269.3202.84614.66565,1.27149,1.03854l17.76743,16.8228c2.78519,2.63785,5.94224,5.07917,10.1412,5.07917,4.19811,0,7.35432-2.4409,10.1395-5.07875l17.77166-16.82407c.42502-.37247.84818-.71757,1.27059-1.03743ZM1074.67212,14.61695c-5.98629,3.45292-9.27341,9.09727-10.43081,10.91098-6.49763,10.18447-21.36754,35.04208-29.61292,48.88528h-15.13653c3.35847-10.49739,15.53633-48.7112,17.72755-54.52201,1.92443-5.10346,4.54198-11.59698,12.12268-11.59698,2.57575,0,1.98731.01498,25.33004,6.32272ZM1108.90671,23.86801c-4.11844,2.2866-6.97108,5.31708-8.30321,6.64922-8.82181,8.82201-31.26665,32.62062-41.86965,43.89598h-16.81726c9.44602-15.83996,22.04069-36.80598,27.60387-45.5163,2.70824-4.24423,7.16407-10.80049,15.64946-10.80049,3.18659,0,3.28275.24436,23.73679,5.7716ZM1145.29768,33.70174c-4.4913,1.39453-8.31532,3.74436-10.26959,5.07998-10.59887,7.24362-37.59736,27.02922-49.29885,35.63149h-18.39579c11.46747-12.17603,29.92994-31.69911,37.69839-39.46772,3.29478-3.29691,7.92108-7.68125,14.53125-7.68125,2.50774,0,1.99931.01867,25.73459,6.4375ZM1167.87278,51.92996c-1.20132.17552-2.47291.45476-3.85875.85836-7.70875,2.2449-18.97718,8.22053-45.81213,21.62489h-21.89023c13.23099-9.70028,33.45926-24.45312,42.25001-30.461,4.03971-2.76094,9.14862-5.13752,13.87302-5.13752,5.13855,0,7.37902,2.23119,10.42592,6.73637,1.5902,2.30889,3.01396,4.35495,5.01217,6.37891ZM1196.01937,64.34242c-1.95628.41258-4.06444.91423-6.34951,1.50969l-33.54587,8.5611h-23.93279c24.70102-12.3976,32.67721-16.45636,38.81785-16.45636,3.36327,0,6.21593.90414,25.01032,6.38557ZM1164.79778,88.106v-9.44314s26.42971-6.74498,26.42971-6.74498l.01546-.00398c8.02677-2.09199,12.95136-2.79169,16.69005-2.79169,5.60939,0,8.81736,1.25925,28.65543,7.05083l-71.79065,11.93296ZM1280.49786,88.97756l-115.70007,12.99692v-7.51994s70.75917-11.7618,70.75917-11.7618l.01732-.00288c9.29556-1.59872,15.17309-2.12163,21.50096-.54256l23.42263,6.83027ZM1302.86237,107.24023c-2.70912.16688-5.36297.34417-6.36366.40059l-131.70093,7.71943v-7.08382s114.20639-12.8291,114.20639-12.8291c12.40027-1.41617,14.89147-1.69961,18.91962,3.7641.98604,1.45382,1.88284,3.01603,2.77646,4.64292.72069,1.31244,1.44189,2.42997,2.16212,3.38587ZM1324.40111,127.34014h-159.60333v-5.70712s137.71771-8.10507,137.71771-8.10507c11.16866-.77378,13.08487-.87162,16.90485,5.33402,1.24537,2.19109,3.65683,6.4327,3.6783,6.47213.42714.74786.86156,1.41282,1.30246,2.00604ZM1343.14894,147.79307c-.58957,1.04447-2.02959,1.64378-3.94907,1.64378l-277.48866-.00042c-4.27491,0-8.9415.01951-14.341-5.37819-3.28716-3.28882-4.06272-6.95737-7.13406-10.45554h286.71419c8.53404,0,9.52728.00042,12.05373,3.96846l3.6146,6.02711c.93687,1.55696,1.13508,3.12493.53027,4.19481Z" style="fill: #1fb095;"/>
      </g>
      <g style="opacity: .25;">
        <path d="M870.38844,716.12818h8.1394l-4.06914-10.54907-4.07026,10.54907ZM861.89459,726.4807l11.85296-28.21073h3.08197l11.85296,28.21073h-6.20363l-2.72638-7.07284h-10.62729l-2.76611,7.07284h-4.46447ZM890.38059,725.17689l-.47374-5.0973c2.71202,2.29137,5.57094,3.43759,8.57338,3.43759,1.71157,0,3.00244-.33681,3.87147-1.00819,1.6641-1.28351,1.66098-3.54499.45386-4.97805-1.02735-1.21762-2.81786-1.96347-7.09147-4.01071-3.79197-1.81651-5.68909-4.46456-5.68909-7.94079,0-2.42276.8293-4.35191,2.48897-5.78858,3.64121-3.14941,9.64896-1.94811,10.25293-1.83639,1.14512.20981,2.2582.53999,3.33815.98721l.47371,4.85989c-1.29084-.92205-2.49557-1.59345-3.61418-2.01529-3.8501-1.44664-7.96164-.47026-7.96164,2.84569,0,1.61565,1.0431,2.72906,3.20012,3.83072,4.95967,2.50235,7.29487,3.47771,9.06808,5.71016,2.17006,2.73509,2.28253,8.03221-1.20474,10.7865-1.81759,1.43665-4.33415,2.15332-7.54644,2.15332-4.21244,0-7.03308-1.31475-8.13937-1.93579ZM917.24702,726.4807v-24.77425c-2.31481.04576-4.75347.21255-8.45523.67251l.31583-4.10899h21.69068l.31694,4.10899c-4.67804-.58083-7.19632-.64681-8.49496-.67251v24.77425h-5.37326ZM945.45656,723.67499c4.3879,0,8.3757-3.51345,8.3757-11.29998,0-.64612.16093-6.898-3.93111-9.91744-1.25111-.92096-2.73302-1.38254-4.44458-1.38254-5.85854,0-8.37573,5.44103-8.37573,11.29998,0,7.73842,3.96468,11.29998,8.37573,11.29998ZM945.45656,727.11256c-8.42247,0-14.22381-6.11147-14.22381-14.73755,0-8.73409,5.86059-14.73646,14.22381-14.73646,8.34148,0,14.22378,5.9816,14.22378,14.73646,0,8.62576-5.8011,14.73755-14.22378,14.73755ZM964.02544,726.4807v-28.21073h2.92402l16.87069,19.16236v-19.16236h3.99073v28.21073h-2.96379l-16.83093-19.20322v19.20322h-3.99073ZM1002.83702,726.4807l3.16143-28.21073h2.88429l10.0354,19.67586,9.67981-19.67586h2.88318l3.16146,28.21073h-5.72882l-1.61994-17.42424-7.90199,16.27801h-2.60823l-8.02014-16.08146-1.61991,17.22768h-4.30655ZM1045.54586,716.12818h8.13937l-4.06914-10.54907-4.07022,10.54907ZM1037.05201,726.4807l11.85296-28.21073h3.08197l11.85292,28.21073h-6.20363l-2.72638-7.07284h-10.62729l-2.76607,7.07284h-4.46447ZM1071.74111,711.1104c.76416.13251,1.51396.19766,2.25264.19766,4.5972,0,5.72888-2.64427,5.72888-4.93829,0-3.45971-2.44705-4.89963-5.96626-4.89963-.63273,0-1.30415.03975-2.01526.11815v9.52211ZM1066.36788,726.4807v-27.97332c1.56791-.19557,3.45367-.35556,6.32178-.35556,2.5287,0,4.72728.29595,6.59784.88783,2.71436.86205,5.92649,2.80275,5.92649,7.05295,0,1.76572-.5466,3.33931-1.63979,4.72076-1.09319,1.38364-2.61483,2.36534-4.56277,2.94507l9.91618,12.72227h-6.51953l-8.8494-12.05087h-1.81759v12.05087h-5.37323ZM1095.56571,726.4807v-24.77425c-2.31482.04576-4.75349.21255-8.45526.67251l.31583-4.10899h21.69071l.3169,4.10899c-4.66658-.57984-7.19123-.64671-8.49496-.67251v24.77425h-5.37323ZM1113.10808,698.26952h5.37329v28.21073h-5.37329v-28.21073ZM1124.01198,726.4807v-28.21073h2.92291l16.87177,19.16236v-19.16236h3.99076v28.21073h-2.96382l-16.83093-19.20322v19.20322h-3.99069Z" style="fill: #1fb095;"/>
        <path d="M1349.02972,665.26281c-1.82291-3.22404-5.40604-5.07324-9.82947-5.07324h-277.48866c-4.68264,0-11.75911,0-19.11682,7.357-2.40909,2.40956-3.74747,4.80259-4.9266,6.91397-2.28372,4.08468-3.93382,7.03596-11.52193,7.03596h-40.43095c-7.58811,0-9.23737-2.95127-11.52024-7.03553-1.17998-2.1118-2.51836-4.50484-4.92744-6.9144-7.35686-7.357-14.43418-7.357-19.11767-7.357h-277.48781c-4.42343,0-8.00657,1.8492-9.83032,5.07409-1.81952,3.21641-1.58742,7.32947.62091,11.00162l5.00114,8.33836c2.6937,4.61242,6.24634,5.3261,8.84178,5.84748,2.35657.4731,3.77965.759,5.60087,3.94703l4.39802,7.73862c3.41033,6.33033,7.52119,7.10838,10.52238,7.67636,2.31217.4327,4.4925.63115,7.42378,5.96692,2.85888,5.20496,7.17982,13.07107,17.65985,16.19388,1.03343.30157,103.40007,30.1527,103.52883,30.1904,10.77827,3.49406,13.60788,7.47224,16.97541,12.45396,1.99825,2.95127,7.30519,10.7907,20.46706,14.33324l98.44551,26.60165c10.53103,2.84035,17.19249-2.31391,20.26037-5.02538l17.85552-16.90671c2.45398-2.32396,3.99481-3.2295,5.49583-3.2295,1.50187,0,3.04185.90554,5.49668,3.2295l17.85976,16.9084c3.0917,2.73186,9.75698,7.85495,20.25868,5.02369l98.44552-26.60165c13.16187-3.54297,18.46965-11.38239,20.46706-14.33366,3.34688-4.91726,6.10861-8.93008,16.97372-12.45312.13045-.03812,102.49624-29.88926,103.53136-30.19082,10.48003-3.12323,14.80181-10.98892,17.65985-16.19388,2.80552-5.10882,4.90796-5.49933,7.13408-5.91271,2.96087-.55409,7.28173-1.17741,10.81039-7.72888l4.39971-7.74031c1.82121-3.18803,3.2443-3.47351,5.60087-3.94703,2.59544-.52096,6.14639-1.23464,8.84009-5.84664l5.00283-8.33921c2.20748-3.67257,2.43958-7.78563.62006-11.00247ZM1159.5056,688.07363v48.60252h-307.152v-48.60252h307.152ZM1049.34246,808.08777c-7.5807,0-10.19825-6.49352-12.12268-11.59698-2.19122-5.8108-14.36908-44.02462-17.72755-54.52201h15.13653c8.24538,13.8432,23.11529,38.7008,29.61292,48.88528,1.1574,1.81371,4.44452,7.45806,10.43081,10.91098-23.34273,6.30775-22.75429,6.32272-25.33004,6.32272ZM1085.17029,798.28558c-8.48539,0-12.94122-6.55626-15.64946-10.80049-5.56317-8.71032-18.15784-29.67634-27.60387-45.5163h16.81726c10.603,11.27536,33.04784,35.07398,41.86965,43.89598,1.33213,1.33214,4.18477,4.36261,8.30321,6.64922-20.45404,5.52724-20.5502,5.7716-23.73679,5.7716ZM1119.56347,789.11776c-6.61017,0-11.23647-4.38434-14.53125-7.68125-7.76845-7.76861-26.23093-27.29169-37.69839-39.46772h18.39579c11.70149,8.60227,38.69997,28.38787,49.29885,35.63149,1.95427,1.33561,5.77829,3.68545,10.26959,5.07998-23.73528,6.41883-23.22685,6.4375-25.73459,6.4375ZM1162.86098,770.83094c-3.04689,4.50518-5.28736,6.73637-10.42592,6.73637-4.7244,0-9.83331-2.37658-13.87302-5.13752-8.79075-6.00788-29.01901-20.76073-42.25001-30.461h21.89023c26.83496,13.40436,38.10339,19.37999,45.81213,21.62489,1.38584.4036,2.65743.68284,3.85875.85836-1.99821,2.02395-3.42197,4.07002-5.01217,6.37891ZM1171.00941,758.42515c-6.14064,0-14.11683-4.05876-38.81785-16.45636h23.93279l33.54587,8.5611c2.28507.59546,4.39323,1.09711,6.34951,1.50969-18.79439,5.48143-21.64706,6.38557-25.01032,6.38557ZM1236.58881,740.20895c-19.83807,5.79158-23.04604,7.05083-28.65543,7.05083-3.7387,0-8.66329-.6997-16.69005-2.79169l-.01546-.00398-26.42971-6.74498v-9.44314l71.79065,11.93296ZM1257.0756,734.2347c-6.32787,1.57907-12.2054,1.05616-21.50096-.54256l-.01732-.00288-70.75917-11.7618v-7.51994l115.70007,12.99692-23.42263,6.83027ZM1300.70063,712.52764c-.89362,1.62688-1.79042,3.18909-2.77646,4.64292-4.02814,5.46371-6.51935,5.18027-18.91962,3.7641l-114.20639-12.8291v-7.08382l131.70093,7.71943c1.00069.05642,3.65454.23371,6.36366.40059-.72023.9559-1.44143,2.07343-2.16212,3.38587ZM1323.09902,691.0479c-.02147.03943-2.43293,4.28104-3.6783,6.47213-3.81998,6.20563-5.73619,6.1078-16.90485,5.33402l-137.71771-8.10507v-5.70712h159.60333c-.4409.59322-.87533,1.25819-1.30246,2.00604ZM1342.61905,672.78373l-3.6146,6.02711c-2.52645,3.96804-3.51969,3.96846-12.05373,3.96846h-286.71419c3.07133-3.49818,3.8469-7.16673,7.13406-10.45554,5.3995-5.3977,10.0661-5.37819,14.341-5.37819l277.48866-.00042c1.91947,0,3.3595.59932,3.94907,1.64378.60481,1.06988.4066,2.63785-.53027,4.19481ZM976.7503,806.57628c1.19482-1.75399,2.30453-4.03818,3.75164-7.87576,2.24882-5.96345,14.85789-45.53062,18.44314-56.73173h13.97217c3.58526,11.20111,16.19433,50.76828,18.44315,56.73173,1.44717,3.83776,2.55691,6.12194,3.75178,7.87602-.42269-.3202-.84614-.66565-1.27149-1.03854l-17.76743-16.8228c-2.78519-2.63785-5.94224-5.07917-10.1412-5.07917-4.19811,0-7.35432,2.4409-10.1395,5.07875l-17.77166,16.82407c-.42502.37247-.84818.71757-1.27059,1.03743ZM937.18949,801.76505c5.98629-3.45292,9.27341-9.09727,10.43081-10.91098,6.49763-10.18447,21.36754-35.04208,29.61292-48.88528h15.13653c-3.35847,10.49739-15.53633,48.7112-17.72755,54.52201-1.92443,5.10346-4.54198,11.59698-12.12268,11.59698-2.57575,0-1.98731-.01498-25.33004-6.32272ZM902.9549,792.51399c4.11844-2.2866,6.97108-5.31708,8.30321-6.64922,8.82181-8.82201,31.26665-32.62062,41.86965-43.89598h16.81726c-9.44602,15.83996-22.04069,36.80598-27.60387,45.5163-2.70824,4.24423-7.16407,10.80049-15.64946,10.80049-3.18659,0-3.28275-.24436-23.73679-5.7716ZM866.56392,782.68025c4.4913-1.39453,8.31532-3.74436,10.26959-5.07998,10.59887-7.24362,37.59736-27.02922,49.29885-35.63149h18.39579c-11.46747,12.17603-29.92994,31.69911-37.69839,39.46772-3.29478,3.29691-7.92108,7.68125-14.53125,7.68125-2.50774,0-1.99931-.01867-25.73459-6.4375ZM843.98883,764.45204c1.20132-.17552,2.47291-.45476,3.85875-.85836,7.70875-2.2449,18.97718-8.22053,45.81213-21.62489h21.89023c-13.23099,9.70028-33.45926,24.45312-42.25001,30.461-4.03971,2.76094-9.14862,5.13752-13.87302,5.13752-5.13855,0-7.37902-2.23119-10.42592-6.73637-1.5902-2.30889-3.01396-4.35495-5.01217-6.37891ZM815.84224,752.03958c1.95628-.41258,4.06444-.91423,6.34951-1.50969l33.54587-8.5611h23.93279c-24.70102,12.3976-32.67721,16.45636-38.81785,16.45636-3.36327,0-6.21593-.90414-25.01032-6.38557ZM847.06383,728.27599v9.44314s-26.42971,6.74498-26.42971,6.74498l-.01546.00398c-8.02677,2.09199-12.95136,2.79169-16.69005,2.79169-5.60939,0-8.81736-1.25925-28.65543-7.05083l71.79065-11.93296ZM731.36375,727.40443l115.70007-12.99692v7.51994s-70.75917,11.7618-70.75917,11.7618l-.01732.00288c-9.29556,1.59872-15.17309,2.12163-21.50096.54256l-23.42263-6.83027ZM708.99923,709.14177c2.70912-.16688,5.36297-.34417,6.36366-.40059l131.70093-7.71943v7.08382s-114.20639,12.8291-114.20639,12.8291c-12.40027,1.41617-14.89147,1.69961-18.91962-3.7641-.98604-1.45382-1.88284-3.01603-2.77646-4.64292-.72069-1.31244-1.44189-2.42997-2.16212-3.38587ZM687.4605,689.04186h159.60333v5.70712s-137.71771,8.10507-137.71771,8.10507c-11.16866.77378-13.08487.87162-16.90485-5.33402-1.24537-2.19109-3.65683-6.4327-3.6783-6.47213-.42714-.74786-.86156-1.41282-1.30246-2.00604ZM668.71266,668.58892c.58957-1.04447,2.02959-1.64378,3.94907-1.64378l277.48866.00042c4.27491,0,8.9415-.01951,14.341,5.37819,3.28716,3.28882,4.06272,6.95737,7.13406,10.45554h-286.71419c-8.53404,0-9.52728-.00042-12.05373-3.96846l-3.6146-6.02711c-.93687-1.55696-1.13508-3.12493-.53027-4.19481Z" style="fill: #1fb095;"/>
      </g>
      <g style="opacity: .25;">
        <path d="M100.25381,272.64863v8.1394s10.54907-4.06914,10.54907-4.06914l-10.54907-4.07026ZM89.9013,264.15478l28.21073,11.85296v3.08197s-28.21073,11.85296-28.21073,11.85296v-6.20363s7.07284-2.72638,7.07284-2.72638v-10.62729s-7.07284-2.76611-7.07284-2.76611v-4.46447ZM91.2051,292.64078l5.0973-.47374c-2.29137,2.71202-3.43759,5.57094-3.43759,8.57338,0,1.71157.33681,3.00244,1.00819,3.87147,1.28351,1.6641,3.54499,1.66098,4.97805.45386,1.21762-1.02735,1.96347-2.81786,4.01071-7.09147,1.81651-3.79197,4.46456-5.68909,7.94079-5.68909,2.42276,0,4.35191.8293,5.78858,2.48897,3.14941,3.64121,1.94811,9.64896,1.83639,10.25293-.20981,1.14512-.53999,2.2582-.98721,3.33815l-4.85989.47371c.92205-1.29084,1.59345-2.49557,2.01529-3.61418,1.44664-3.8501.47026-7.96164-2.84569-7.96164-1.61565,0-2.72906,1.0431-3.83072,3.20012-2.50235,4.95967-3.47771,7.29487-5.71016,9.06808-2.73509,2.17006-8.03221,2.28253-10.7865-1.20474-1.43665-1.81759-2.15332-4.33415-2.15332-7.54644,0-4.21244,1.31475-7.03308,1.93579-8.13937ZM89.9013,319.50722h24.77425c-.04576-2.31481-.21255-4.75347-.67251-8.45523l4.10899.31583v21.69068s-4.10899.31694-4.10899.31694c.58083-4.67804.64681-7.19632.67251-8.49496h-24.77425v-5.37326ZM92.70701,347.71675c0,4.3879,3.51345,8.3757,11.29998,8.3757.64612,0,6.898.16093,9.91744-3.93111.92096-1.25111,1.38254-2.73302,1.38254-4.44458,0-5.85854-5.44103-8.37573-11.29998-8.37573-7.73842,0-11.29998,3.96468-11.29998,8.37573ZM89.26943,347.71675c0-8.42247,6.11147-14.22381,14.73755-14.22381,8.73409,0,14.73646,5.86059,14.73646,14.22381,0,8.34148-5.9816,14.22378-14.73646,14.22378-8.62576,0-14.73755-5.8011-14.73755-14.22378ZM89.9013,366.28563h28.21073v2.92402s-19.16236,16.87069-19.16236,16.87069h19.16236v3.99073h-28.21073v-2.96379s19.20322-16.83093,19.20322-16.83093h-19.20322v-3.99073ZM89.9013,405.09722l28.21073,3.16143v2.88429s-19.67586,10.0354-19.67586,10.0354l19.67586,9.67981v2.88318s-28.21073,3.16146-28.21073,3.16146v-5.72882s17.42424-1.61994,17.42424-1.61994l-16.27801-7.90199v-2.60823s16.08146-8.02014,16.08146-8.02014l-17.22768-1.61991v-4.30655ZM100.25381,447.80605v8.13937s10.54907-4.06914,10.54907-4.06914l-10.54907-4.07022ZM89.9013,439.3122l28.21073,11.85296v3.08197s-28.21073,11.85292-28.21073,11.85292v-6.20363s7.07284-2.72638,7.07284-2.72638v-10.62729s-7.07284-2.76607-7.07284-2.76607v-4.46447ZM105.2716,474.0013c-.13251.76416-.19766,1.51396-.19766,2.25264,0,4.5972,2.64427,5.72888,4.93829,5.72888,3.45971,0,4.89963-2.44705,4.89963-5.96626,0-.63273-.03975-1.30415-.11815-2.01526h-9.52211ZM89.9013,468.62808h27.97332c.19557,1.56791.35556,3.45367.35556,6.32178,0,2.5287-.29595,4.72728-.88783,6.59784-.86205,2.71436-2.80275,5.92649-7.05295,5.92649-1.76572,0-3.33931-.5466-4.72076-1.63979-1.38364-1.09319-2.36534-2.61483-2.94507-4.56277l-12.72227,9.91618v-6.51953s12.05087-8.8494,12.05087-8.8494v-1.81759s-12.05087,0-12.05087,0v-5.37323ZM89.9013,497.8259h24.77425c-.04576-2.31482-.21255-4.75349-.67251-8.45526l4.10899.31583v21.69071s-4.10899.3169-4.10899.3169c.57984-4.66658.64671-7.19123.67251-8.49496h-24.77425v-5.37323ZM118.11247,515.36828v5.37329h-28.21073v-5.37329h28.21073ZM89.9013,526.27217h28.21073v2.92291s-19.16236,16.87177-19.16236,16.87177h19.16236v3.99076h-28.21073v-2.96382s19.20322-16.83093,19.20322-16.83093h-19.20322v-3.99069Z" style="fill: #1fb095;"/>
        <path d="M151.11919,751.28991c3.22404-1.82291,5.07324-5.40604,5.07324-9.82947v-277.48866c0-4.68264,0-11.75911-7.357-19.11682-2.40956-2.40909-4.80259-3.74747-6.91397-4.9266-4.08468-2.28372-7.03596-3.93382-7.03596-11.52193v-40.43095c0-7.58811,2.95127-9.23737,7.03553-11.52024,2.1118-1.17998,4.50484-2.51836,6.9144-4.92744,7.357-7.35686,7.357-14.43418,7.357-19.11767V74.92233c0-4.42343-1.8492-8.00657-5.07409-9.83032-3.21641-1.81952-7.32947-1.58742-11.00162.62091l-8.33836,5.00114c-4.61242,2.6937-5.3261,6.24634-5.84748,8.84178-.4731,2.35657-.759,3.77965-3.94703,5.60087l-7.73862,4.39802c-6.33033,3.41033-7.10838,7.52119-7.67636,10.52238-.4327,2.31217-.63115,4.4925-5.96692,7.42378-5.20496,2.85888-13.07107,7.17982-16.19388,17.65985-.30157,1.03343-30.1527,103.40007-30.1904,103.52883-3.49406,10.77827-7.47224,13.60788-12.45396,16.97541-2.95127,1.99825-10.7907,7.30519-14.33324,20.46706L.82881,364.57754c-2.84035,10.53103,2.31391,17.19249,5.02538,20.26037l16.90671,17.85552c2.32396,2.45398,3.2295,3.99481,3.2295,5.49583,0,1.50187-.90554,3.04185-3.2295,5.49668l-16.9084,17.85976c-2.73186,3.0917-7.85495,9.75698-5.02369,20.25868l26.60165,98.44552c3.54297,13.16187,11.38239,18.46965,14.33366,20.46706,4.91726,3.34688,8.93008,6.10861,12.45312,16.97372.03812.13045,29.88926,102.49624,30.19082,103.53136,3.12323,10.48003,10.98892,14.80181,16.19388,17.65985,5.10882,2.80552,5.49933,4.90796,5.91271,7.13408.55409,2.96087,1.17741,7.28173,7.72888,10.81039l7.74031,4.39971c3.18803,1.82121,3.47351,3.2443,3.94703,5.60087.52096,2.59544,1.23464,6.14639,5.84664,8.84009l8.33921,5.00283c3.67257,2.20748,7.78563,2.43958,11.00247.62006ZM128.30837,561.76579h-48.60252V254.6138h48.60252v307.152ZM8.29423,451.60265c0-7.5807,6.49352-10.19825,11.59698-12.12268,5.8108-2.19122,44.02462-14.36908,54.52201-17.72755v15.13653c-13.8432,8.24538-38.7008,23.11529-48.88528,29.61292-1.81371,1.1574-7.45806,4.44452-10.91098,10.43081-6.30775-23.34273-6.32272-22.75429-6.32272-25.33004ZM18.09641,487.43048c0-8.48539,6.55626-12.94122,10.80049-15.64946,8.71032-5.56317,29.67634-18.15784,45.5163-27.60387v16.81726c-11.27536,10.603-35.07398,33.04784-43.89598,41.86965-1.33214,1.33213-4.36261,4.18477-6.64922,8.30321-5.52724-20.45404-5.7716-20.5502-5.7716-23.73679ZM27.26424,521.82366c0-6.61017,4.38434-11.23647,7.68125-14.53125,7.76861-7.76845,27.29169-26.23093,39.46772-37.69839v18.39579c-8.60227,11.70149-28.38787,38.69997-35.63149,49.29885-1.33561,1.95427-3.68545,5.77829-5.07998,10.26959-6.41883-23.73528-6.4375-23.22685-6.4375-25.73459ZM45.55105,565.12117c-4.50518-3.04689-6.73637-5.28736-6.73637-10.42592,0-4.7244,2.37658-9.83331,5.13752-13.87302,6.00788-8.79075,20.76073-29.01901,30.461-42.25001v21.89023c-13.40436,26.83496-19.37999,38.10339-21.62489,45.81213-.4036,1.38584-.68284,2.65743-.85836,3.85875-2.02395-1.99821-4.07002-3.42197-6.37891-5.01217ZM57.95685,573.26961c0-6.14064,4.05876-14.11683,16.45636-38.81785v23.93279s-8.5611,33.54587-8.5611,33.54587c-.59546,2.28507-1.09711,4.39323-1.50969,6.34951-5.48143-18.79439-6.38557-21.64706-6.38557-25.01032ZM76.17304,638.849c-5.79158-19.83807-7.05083-23.04604-7.05083-28.65543,0-3.7387.6997-8.66329,2.79169-16.69005l.00398-.01546,6.74498-26.42971h9.44314s-11.93296,71.79065-11.93296,71.79065ZM82.1473,659.3358c-1.57907-6.32787-1.05616-12.2054.54256-21.50096l.00288-.01732,11.7618-70.75917h7.51994s-12.99692,115.70007-12.99692,115.70007l-6.83027-23.42263ZM103.85435,702.96082c-1.62688-.89362-3.18909-1.79042-4.64292-2.77646-5.46371-4.02814-5.18027-6.51935-3.7641-18.91962l12.8291-114.20639h7.08382s-7.71943,131.70093-7.71943,131.70093c-.05642,1.00069-.23371,3.65454-.40059,6.36366-.9559-.72023-2.07343-1.44143-3.38587-2.16212ZM125.33409,725.35921c-.03943-.02147-4.28104-2.43293-6.47213-3.6783-6.20563-3.81998-6.1078-5.73619-5.33402-16.90485l8.10507-137.71771h5.70712v159.60333c-.59322-.4409-1.25819-.87533-2.00604-1.30246ZM143.59827,744.87924l-6.02711-3.6146c-3.96804-2.52645-3.96846-3.51969-3.96846-12.05373v-286.71419c3.49818,3.07133,7.16673,3.8469,10.45554,7.13406,5.3977,5.3995,5.37819,10.0661,5.37819,14.341l.00042,277.48866c0,1.91947-.59932,3.3595-1.64378,3.94907-1.06988.60481-2.63785.4066-4.19481-.53027ZM9.80571,379.0105c1.75399,1.19482,4.03818,2.30453,7.87576,3.75164,5.96345,2.24882,45.53062,14.85789,56.73173,18.44314v13.97217c-11.20111,3.58526-50.76828,16.19433-56.73173,18.44315-3.83776,1.44717-6.12194,2.55691-7.87602,3.75178.3202-.42269.66565-.84614,1.03854-1.27149l16.8228-17.76743c2.63785-2.78519,5.07917-5.94224,5.07917-10.1412,0-4.19811-2.4409-7.35432-5.07875-10.1395l-16.82407-17.77166c-.37247-.42502-.71757-.84818-1.03743-1.27059ZM14.61695,339.44968c3.45292,5.98629,9.09727,9.27341,10.91098,10.43081,10.18447,6.49763,35.04208,21.36754,48.88528,29.61292v15.13653c-10.49739-3.35847-48.7112-15.53633-54.52201-17.72755-5.10346-1.92443-11.59698-4.54198-11.59698-12.12268,0-2.57575.01498-1.98731,6.32272-25.33004ZM23.86801,305.21509c2.2866,4.11844,5.31708,6.97108,6.64922,8.30321,8.82201,8.82181,32.62062,31.26665,43.89598,41.86965v16.81726c-15.83996-9.44602-36.80598-22.04069-45.5163-27.60387-4.24423-2.70824-10.80049-7.16407-10.80049-15.64946,0-3.18659.24436-3.28275,5.7716-23.73679ZM33.70174,268.82412c1.39453,4.4913,3.74436,8.31532,5.07998,10.26959,7.24362,10.59887,27.02922,37.59736,35.63149,49.29885v18.39579c-12.17603-11.46747-31.69911-29.92994-39.46772-37.69839-3.29691-3.29478-7.68125-7.92108-7.68125-14.53125,0-2.50774.01867-1.99931,6.4375-25.73459ZM51.92996,246.24903c.17552,1.20132.45476,2.47291.85836,3.85875,2.2449,7.70875,8.22053,18.97718,21.62489,45.81213v21.89023c-9.70028-13.23099-24.45312-33.45926-30.461-42.25001-2.76094-4.03971-5.13752-9.14862-5.13752-13.87302,0-5.13855,2.23119-7.37902,6.73637-10.42592,2.30889-1.5902,4.35495-3.01396,6.37891-5.01217ZM64.34242,218.10244c.41258,1.95628.91423,4.06444,1.50969,6.34951l8.5611,33.54587v23.93279c-12.3976-24.70102-16.45636-32.67721-16.45636-38.81785,0-3.36327.90414-6.21593,6.38557-25.01032ZM88.106,249.32402h-9.44314s-6.74498-26.42971-6.74498-26.42971l-.00398-.01546c-2.09199-8.02677-2.79169-12.95136-2.79169-16.69005,0-5.60939,1.25925-8.81736,7.05083-28.65543l11.93296,71.79065ZM88.97756,133.62394l12.99692,115.70007h-7.51994s-11.7618-70.75917-11.7618-70.75917l-.00288-.01732c-1.59872-9.29556-2.12163-15.17309-.54256-21.50096l6.83027-23.42263ZM107.24023,111.25943c.16688,2.70912.34417,5.36297.40059,6.36366l7.71943,131.70093h-7.08382s-12.8291-114.20639-12.8291-114.20639c-1.41617-12.40027-1.69961-14.89147,3.7641-18.91962,1.45382-.98604,3.01603-1.88284,4.64292-2.77646,1.31244-.72069,2.42997-1.44189,3.38587-2.16212ZM127.34014,89.72069v159.60333h-5.70712s-8.10507-137.71771-8.10507-137.71771c-.77378-11.16866-.87162-13.08487,5.33402-16.90485,2.19109-1.24537,6.4327-3.65683,6.47213-3.6783.74786-.42714,1.41282-.86156,2.00604-1.30246ZM147.79307,70.97286c1.04447.58957,1.64378,2.02959,1.64378,3.94907l-.00042,277.48866c0,4.27491.01951,8.9415-5.37819,14.341-3.28882,3.28716-6.95737,4.06272-10.45554,7.13406V87.17146c0-8.53404.00042-9.52728,3.96846-12.05373l6.02711-3.6146c1.55696-.93687,3.12493-1.13508,4.19481-.53027Z" style="fill: #1fb095;"/>
      </g>
      <g style="opacity: .25;">
        <path d="M1911.60779,543.73337v-8.1394s-10.54907,4.06914-10.54907,4.06914l10.54907,4.07026ZM1921.96031,552.22721l-28.21073-11.85296v-3.08197s28.21073-11.85296,28.21073-11.85296v6.20363s-7.07284,2.72638-7.07284,2.72638v10.62729s7.07284,2.76611,7.07284,2.76611v4.46447ZM1920.6565,523.74121l-5.0973.47374c2.29137-2.71202,3.43759-5.57094,3.43759-8.57338,0-1.71157-.33681-3.00244-1.00819-3.87147-1.28351-1.6641-3.54499-1.66098-4.97805-.45386-1.21762,1.02735-1.96347,2.81786-4.01071,7.09147-1.81651,3.79197-4.46456,5.68909-7.94079,5.68909-2.42276,0-4.35191-.8293-5.78858-2.48897-3.14941-3.64121-1.94811-9.64896-1.83639-10.25293.20981-1.14512.53999-2.2582.98721-3.33815l4.85989-.47371c-.92205,1.29084-1.59345,2.49557-2.01529,3.61418-1.44664,3.8501-.47026,7.96164,2.84569,7.96164,1.61565,0,2.72906-1.0431,3.83072-3.20012,2.50235-4.95967,3.47771-7.29487,5.71016-9.06808,2.73509-2.17006,8.03221-2.28253,10.7865,1.20474,1.43665,1.81759,2.15332,4.33415,2.15332,7.54644,0,4.21244-1.31475,7.03308-1.93579,8.13937ZM1921.96031,496.87478h-24.77425c.04576,2.31481.21255,4.75347.67251,8.45523l-4.10899-.31583v-21.69068s4.10899-.31694,4.10899-.31694c-.58083,4.67804-.64681,7.19632-.67251,8.49496h24.77425v5.37326ZM1919.1546,468.66525c0-4.3879-3.51345-8.3757-11.29998-8.3757-.64612,0-6.898-.16093-9.91744,3.93111-.92096,1.25111-1.38254,2.73302-1.38254,4.44458,0,5.85854,5.44103,8.37573,11.29998,8.37573,7.73842,0,11.29998-3.96468,11.29998-8.37573ZM1922.59218,468.66525c0,8.42247-6.11147,14.22381-14.73755,14.22381-8.73409,0-14.73646-5.86059-14.73646-14.22381,0-8.34148,5.9816-14.22378,14.73646-14.22378,8.62576,0,14.73755,5.8011,14.73755,14.22378ZM1921.96031,450.09637h-28.21073v-2.92402s19.16236-16.87069,19.16236-16.87069h-19.16236v-3.99073h28.21073v2.96379s-19.20322,16.83093-19.20322,16.83093h19.20322v3.99073ZM1921.96031,411.28478l-28.21073-3.16143v-2.88429s19.67586-10.0354,19.67586-10.0354l-19.67586-9.67981v-2.88318s28.21073-3.16146,28.21073-3.16146v5.72882s-17.42424,1.61994-17.42424,1.61994l16.27801,7.90199v2.60823s-16.08146,8.02014-16.08146,8.02014l17.22768,1.61991v4.30655ZM1911.60779,368.57594v-8.13937s-10.54907,4.06914-10.54907,4.06914l10.54907,4.07022ZM1921.96031,377.06979l-28.21073-11.85296v-3.08197s28.21073-11.85292,28.21073-11.85292v6.20363s-7.07284,2.72638-7.07284,2.72638v10.62729s7.07284,2.76607,7.07284,2.76607v4.46447ZM1906.59001,342.3807c.13251-.76416.19766-1.51396.19766-2.25264,0-4.5972-2.64427-5.72888-4.93829-5.72888-3.45971,0-4.89963,2.44705-4.89963,5.96626,0,.63273.03975,1.30415.11815,2.01526h9.52211ZM1921.96031,347.75392h-27.97332c-.19557-1.56791-.35556-3.45367-.35556-6.32178,0-2.5287.29595-4.72728.88783-6.59784.86205-2.71436,2.80275-5.92649,7.05295-5.92649,1.76572,0,3.33931.5466,4.72076,1.63979,1.38364,1.09319,2.36534,2.61483,2.94507,4.56277l12.72227-9.91618v6.51953s-12.05087,8.8494-12.05087,8.8494v1.81759s12.05087,0,12.05087,0v5.37323ZM1921.96031,318.5561h-24.77425c.04576,2.31482.21255,4.75349.67251,8.45526l-4.10899-.31583v-21.69071s4.10899-.3169,4.10899-.3169c-.57984,4.66658-.64671,7.19123-.67251,8.49496h24.77425v5.37323ZM1893.74914,301.01372v-5.37329h28.21073v5.37329h-28.21073ZM1921.96031,290.10983h-28.21073v-2.92291s19.16236-16.87177,19.16236-16.87177h-19.16236v-3.99076h28.21073v2.96382s-19.20322,16.83093-19.20322,16.83093h19.20322v3.99069Z" style="fill: #1fb095;"/>
        <path d="M1860.74242,65.09208c-3.22404,1.82291-5.07324,5.40604-5.07324,9.82947v277.48866c0,4.68264,0,11.75911,7.357,19.11682,2.40956,2.40909,4.80259,3.74747,6.91397,4.9266,4.08468,2.28372,7.03596,3.93382,7.03596,11.52193v40.43095c0,7.58811-2.95127,9.23737-7.03553,11.52024-2.1118,1.17998-4.50484,2.51836-6.9144,4.92744-7.357,7.35686-7.357,14.43418-7.357,19.11767v277.48781c0,4.42343,1.8492,8.00657,5.07409,9.83032,3.21641,1.81952,7.32947,1.58742,11.00162-.62091l8.33836-5.00114c4.61242-2.6937,5.3261-6.24634,5.84748-8.84178.4731-2.35657.759-3.77965,3.94703-5.60087l7.73862-4.39802c6.33033-3.41033,7.10838-7.52119,7.67636-10.52238.4327-2.31217.63115-4.4925,5.96692-7.42378,5.20496-2.85888,13.07107-7.17982,16.19388-17.65985.30157-1.03343,30.1527-103.40007,30.1904-103.52883,3.49406-10.77827,7.47224-13.60788,12.45396-16.97541,2.95127-1.99825,10.7907-7.30519,14.33324-20.46706l26.60165-98.44551c2.84035-10.53103-2.31391-17.19249-5.02538-20.26037l-16.90671-17.85552c-2.32396-2.45398-3.2295-3.99481-3.2295-5.49583,0-1.50187.90554-3.04185,3.2295-5.49668l16.9084-17.85976c2.73186-3.0917,7.85495-9.75698,5.02369-20.25868l-26.60165-98.44552c-3.54297-13.16187-11.38239-18.46965-14.33366-20.46706-4.91726-3.34688-8.93008-6.10861-12.45312-16.97372-.03812-.13045-29.88926-102.49624-30.19082-103.53136-3.12323-10.48003-10.98892-14.80181-16.19388-17.65985-5.10882-2.80552-5.49933-4.90796-5.91271-7.13408-.55409-2.96087-1.17741-7.28173-7.72888-10.81039l-7.74031-4.39971c-3.18803-1.82121-3.47351-3.2443-3.94703-5.60087-.52096-2.59544-1.23464-6.14639-5.84664-8.84009l-8.33921-5.00283c-3.67257-2.20748-7.78563-2.43958-11.00247-.62006ZM1883.55324,254.6162h48.60252v307.152h-48.60252V254.6162ZM2003.56738,364.77935c0,7.5807-6.49352,10.19825-11.59698,12.12268-5.8108,2.19122-44.02462,14.36908-54.52201,17.72755v-15.13653c13.8432-8.24538,38.7008-23.11529,48.88528-29.61292,1.81371-1.1574,7.45806-4.44452,10.91098-10.43081,6.30775,23.34273,6.32272,22.75429,6.32272,25.33004ZM1993.76519,328.95151c0,8.48539-6.55626,12.94122-10.80049,15.64946-8.71032,5.56317-29.67634,18.15784-45.5163,27.60387v-16.81726c11.27536-10.603,35.07398-33.04784,43.89598-41.86965,1.33214-1.33213,4.36261-4.18477,6.64922-8.30321,5.52724,20.45404,5.7716,20.5502,5.7716,23.73679ZM1984.59737,294.55833c0,6.61017-4.38434,11.23647-7.68125,14.53125-7.76861,7.76845-27.29169,26.23093-39.46772,37.69839v-18.39579c8.60227-11.70149,28.38787-38.69997,35.63149-49.29885,1.33561-1.95427,3.68545-5.77829,5.07998-10.26959,6.41883,23.73528,6.4375,23.22685,6.4375,25.73459ZM1966.31056,251.26083c4.50518,3.04689,6.73637,5.28736,6.73637,10.42592,0,4.7244-2.37658,9.83331-5.13752,13.87302-6.00788,8.79075-20.76073,29.01901-30.461,42.25001v-21.89023c13.40436-26.83496,19.37999-38.10339,21.62489-45.81213.4036-1.38584.68284-2.65743.85836-3.85875,2.02395,1.99821,4.07002,3.42197,6.37891,5.01217ZM1953.90476,243.11239c0,6.14064-4.05876,14.11683-16.45636,38.81785v-23.93279s8.5611-33.54587,8.5611-33.54587c.59546-2.28507,1.09711-4.39323,1.50969-6.34951,5.48143,18.79439,6.38557,21.64706,6.38557,25.01032ZM1935.68856,177.533c5.79158,19.83807,7.05083,23.04604,7.05083,28.65543,0,3.7387-.6997,8.66329-2.79169,16.69005l-.00398.01546-6.74498,26.42971h-9.44314s11.93296-71.79065,11.93296-71.79065ZM1929.71431,157.0462c1.57907,6.32787,1.05616,12.2054-.54256,21.50096l-.00288.01732-11.7618,70.75917h-7.51994s12.99692-115.70007,12.99692-115.70007l6.83027,23.42263ZM1908.00725,113.42118c1.62688.89362,3.18909,1.79042,4.64292,2.77646,5.46371,4.02814,5.18027,6.51935,3.7641,18.91962l-12.8291,114.20639h-7.08382s7.71943-131.70093,7.71943-131.70093c.05642-1.00069.23371-3.65454.40059-6.36366.9559.72023,2.07343,1.44143,3.38587,2.16212ZM1886.52751,91.02278c.03943.02147,4.28104,2.43293,6.47213,3.6783,6.20563,3.81998,6.1078,5.73619,5.33402,16.90485l-8.10507,137.71771h-5.70712V89.72032c.59322.4409,1.25819.87533,2.00604,1.30246ZM1868.26334,71.50276l6.02711,3.6146c3.96804,2.52645,3.96846,3.51969,3.96846,12.05373v286.71419c-3.49818-3.07133-7.16673-3.8469-10.45554-7.13406-5.3977-5.3995-5.37819-10.0661-5.37819-14.341l-.00042-277.48866c0-1.91947.59932-3.3595,1.64378-3.94907,1.06988-.60481,2.63785-.4066,4.19481.53027ZM2002.0559,437.3715c-1.75399-1.19482-4.03818-2.30453-7.87576-3.75164-5.96345-2.24882-45.53062-14.85789-56.73173-18.44314v-13.97217c11.20111-3.58526,50.76828-16.19433,56.73173-18.44315,3.83776-1.44717,6.12194-2.55691,7.87602-3.75178-.3202.42269-.66565.84614-1.03854,1.27149l-16.8228,17.76743c-2.63785,2.78519-5.07917,5.94224-5.07917,10.1412,0,4.19811,2.4409,7.35432,5.07875,10.1395l16.82407,17.77166c.37247.42502.71757.84818,1.03743,1.27059ZM1997.24466,476.93232c-3.45292-5.98629-9.09727-9.27341-10.91098-10.43081-10.18447-6.49763-35.04208-21.36754-48.88528-29.61292v-15.13653c10.49739,3.35847,48.7112,15.53633,54.52201,17.72755,5.10346,1.92443,11.59698,4.54198,11.59698,12.12268,0,2.57575-.01498,1.98731-6.32272,25.33004ZM1987.9936,511.16691c-2.2866-4.11844-5.31708-6.97108-6.64922-8.30321-8.82201-8.82181-32.62062-31.26665-43.89598-41.86965v-16.81726c15.83996,9.44602,36.80598,22.04069,45.5163,27.60387,4.24423,2.70824,10.80049,7.16407,10.80049,15.64946,0,3.18659-.24436,3.28275-5.7716,23.73679ZM1978.15986,547.55788c-1.39453-4.4913-3.74436-8.31532-5.07998-10.26959-7.24362-10.59887-27.02922-37.59736-35.63149-49.29885v-18.39579c12.17603,11.46747,31.69911,29.92994,39.46772,37.69839,3.29691,3.29478,7.68125,7.92108,7.68125,14.53125,0,2.50774-.01867,1.99931-6.4375,25.73459ZM1959.93165,570.13297c-.17552-1.20132-.45476-2.47291-.85836-3.85875-2.2449-7.70875-8.22053-18.97718-21.62489-45.81213v-21.89023c9.70028,13.23099,24.45312,33.45926,30.461,42.25001,2.76094,4.03971,5.13752,9.14862,5.13752,13.87302,0,5.13855-2.23119,7.37902-6.73637,10.42592-2.30889,1.5902-4.35495,3.01396-6.37891,5.01217ZM1947.51919,598.27956c-.41258-1.95628-.91423-4.06444-1.50969-6.34951l-8.5611-33.54587v-23.93279c12.3976,24.70102,16.45636,32.67721,16.45636,38.81785,0,3.36327-.90414,6.21593-6.38557,25.01032ZM1923.75561,567.05798h9.44314s6.74498,26.42971,6.74498,26.42971l.00398.01546c2.09199,8.02677,2.79169,12.95136,2.79169,16.69005,0,5.60939-1.25925,8.81736-7.05083,28.65543l-11.93296-71.79065ZM1922.88405,682.75805l-12.99692-115.70007h7.51994s11.7618,70.75917,11.7618,70.75917l.00288.01732c1.59872,9.29556,2.12163,15.17309.54256,21.50096l-6.83027,23.42263ZM1904.62138,705.12257c-.16688-2.70912-.34417-5.36297-.40059-6.36366l-7.71943-131.70093h7.08382s12.8291,114.20639,12.8291,114.20639c1.41617,12.40027,1.69961,14.89147-3.7641,18.91962-1.45382.98604-3.01603,1.88284-4.64292,2.77646-1.31244.72069-2.42997,1.44189-3.38587,2.16212ZM1884.52147,726.66131v-159.60333h5.70712s8.10507,137.71771,8.10507,137.71771c.77378,11.16866.87162,13.08487-5.33402,16.90485-2.19109,1.24537-6.4327,3.65683-6.47213,3.6783-.74786.42714-1.41282.86156-2.00604,1.30246ZM1864.06853,745.40914c-1.04447-.58957-1.64378-2.02959-1.64378-3.94907l.00042-277.48866c0-4.27491-.01951-8.9415,5.37819-14.341,3.28882-3.28716,6.95737-4.06272,10.45554-7.13406v286.71419c0,8.53404-.00042,9.52728-3.96846,12.05373l-6.02711,3.6146c-1.55696.93687-3.12493,1.13508-4.19481.53027Z" style="fill: #1fb095;"/>
      </g>
    </g>
  </g>
</svg>