<?xml version="1.0" encoding="UTF-8"?>
<svg width="633" height="158" version="1.1" viewBox="0 0 633 158" xml:space="preserve" xmlns="http://www.w3.org/2000/svg">
					<title>Haas F1 Team</title>
					<style>.st4{fill:#da291c}</style>
					<g transform="matrix(1.9551 0 0 1.9551 2.6804 .75395)"><path d="m77.6 55.9c-5.4 9.1-15.4 15.3-26.7 15.3-8.4 0-16-3.4-21.6-8.8h8.7s25-44 25.1-44.2 0.1-0.3-0.1-0.3h-10.3c-0.2 0-0.2 0.1-0.3 0.1-0.1 0.1-14.1 24.5-14.1 24.5h-18.3c-0.1-0.8-0.1-1.5-0.1-2.3 0-17.1 13.9-31 31-31 8.7 0 16.6 3.6 22.3 9.5-2.4 4.1-13.4 22.8-14.9 25.5-0.9-2-4.8-1.6-6.8-1.6-0.9 1.5-5 9.3-5 9.3h4.4c2 0 2.2 2.1 1.4 3.4s-4.1 7.1-4.1 7.1h10.5s12.9-22.6 20.3-35.4c1 2.1 1.8 4.4 2.3 6.7 2.5-1.7 5.5-2.7 8.8-2.7-4.3-17.8-20.2-31-39.2-31-22.2 0-40.2 18-40.2 40.2 0 0.8 0 1.6 0.1 2.3h-5.3c-0.3 0-0.4 0.2-0.6 0.4-0.1 0.2-4.7 8.4-4.9 8.6 0 0.2 0 0.3 0.2 0.3h12.2c5 16.5 20.3 28.5 38.5 28.5 14.5 0 27.1-7.6 34.2-19.1-3-0.9-5.6-2.8-7.5-5.3zm-55.5-4.1h10.7l-5.2 8.9c-2.2-2.6-4.1-5.6-5.5-8.9z" clip-rule="evenodd" fill="#da291c" fill-rule="evenodd"/><path d="m84.7 51.1c2.8 0 6-1.4 8.8-3.9 0 0-0.4 2-0.5 2.6s0.3 1.1 0.9 1.1h0.2c0.6 0 1.1-0.5 1.2-1.1l1-5.6c0.1-0.6-0.3-1.1-0.9-1.1h-5.6c-0.6 0-1.2 0.3-1.3 0.9v0.3c-0.1 0.6 0.3 1 0.9 1h2.9l-0.1 0.1c-2 1.9-4.5 2.9-6.5 2.9s-4.3-1.3-4.3-4.2c0-6 5.6-9.5 8.6-9.5-4.7 0-8.8 2.8-10.7 6.9-0.4 1.2-0.7 2.3-0.7 3.4 0 5.4 4.3 6.2 6.1 6.2z" fill="#fff"/><path class="st4" d="m89.9 34.7c-3 0-8.6 3.5-8.6 9.5 0 2.9 2.3 4.2 4.3 4.2s4.5-1 6.5-2.9l0.1-0.1h-2.9c-0.6 0-1-0.4-0.9-1v-0.3c0.1-0.6 0.7-0.9 1.3-0.9h5.6c0.6 0 1 0.5 0.9 1.1l-1 5.6c-0.1 0.6-0.5 1.1-1.2 1.1h-0.2c-0.6 0-1-0.5-0.9-1.1s0.5-2.6 0.5-2.6c-2.7 2.5-6 3.9-8.8 3.9-1.8 0-6.1-0.8-6.1-6.1 0-1.1 0.2-2.2 0.7-3.4v0.1c-0.1 0.2-0.2 0.5-0.3 0.7s-0.1 0.3-0.2 0.5-0.1 0.5-0.2 0.7c0 0.2-0.1 0.3-0.1 0.5-0.1 0.3-0.1 0.5-0.1 0.8 0 0.1 0 0.3-0.1 0.4 0 0.4-0.1 0.8-0.1 1.3 0 0.4 0 0.8 0.1 1.2 0.4 3.6 2.3 6.7 5.1 8.6 0.9 0.6 2 1.1 3.1 1.5 1.1 0.3 2.3 0.5 3.5 0.5 2 0 3.9-0.5 5.6-1.4 2-1.1 3.7-2.7 4.7-4.7 0.9-1.7 1.4-3.6 1.4-5.6 0.1-6.8-5.2-12.1-11.7-12.1z" fill="#DA291C"/><path d="m107.6 39.2h0.6c1.5 0 2.2-0.7 2.5-2.4l3.2-18.1 3.1 12.1c0.3 1.2 0.5 2 2.8 2 2 0 2.4-0.7 3.1-1.8l7.6-12.5-3.2 18.1c-0.3 1.7 0.5 2.6 1.9 2.6h0.6c1.5 0 2.2-0.8 2.5-2.4l4-22.4c0.3-1.8-0.5-3-2.4-3h-1.6c-1.6 0-2.2 0.5-3.3 2.2l-8.6 13.9-3.6-13.8c-0.4-1.6-0.9-2.3-2.7-2.3h-1.4c-1.7 0-2.9 1-3.2 2.9l-4 22.4c-0.1 1.6 0.6 2.5 2.1 2.5zm38.2 0c7.3 0 11.4-5.8 11.2-12.2-0.2-5.4-3.9-9.4-10.1-9.4-7.1 0-11.4 5.8-11.2 12.1 0.2 5.8 4.2 9.5 10.1 9.5zm1.1-17.7c3.1 0 5.5 2.4 5.6 5.7 0.1 4.5-2.7 8-6.7 8-3.3 0-5.4-2.4-5.6-5.7-0.1-4.2 2.7-8 6.7-8zm12.8 17.7h0.6c1.5 0 2.1-0.6 2.4-2.4l1.9-10.9c1.4-2.4 2.9-3.6 5.3-3.6s3.8 1.4 3.8 3.8c0 0.6-0.1 1.4-0.2 2.3l-1.5 8.4c-0.3 1.9 0.8 2.4 2.1 2.4h0.6c1.5 0 2.1-0.6 2.4-2.4l1.6-9.3c0.2-1 0.3-2 0.3-2.8-0.1-4-2.7-6.7-7.1-6.7-3 0-5.3 1.5-6.8 3.9 0.1-2.8-1.4-3.6-3-3.6-0.7 0-1.3 0.2-1.4 0.3l-3.2 18.2c-0.2 1.8 0.9 2.4 2.2 2.4zm90.5 0h0.6c1.3 0 1.9-0.6 2.2-2.4l1.1-6.1c0.8-4.7 2.6-8.1 5.4-8.1 1.4 0 2.2 0.6 2.9 1.2 0.1 0.1 2.2-0.7 2.1-3.3-0.1-1.6-1.6-2.6-3.6-2.6-2.4 0-4.2 1.4-5.5 3.9 0.2-2.8-1.4-3.6-2.9-3.6-0.8 0-1.3 0.2-1.4 0.3l-3.2 18.2c-0.3 1.9 0.9 2.5 2.3 2.5zm21.4 0c3.2 0 5.6-1.3 7.2-4-0.2 2.7 0.3 3.6 2.3 3.6 1.8 0 2.3-0.6 2.5-2.6 0.2-3.6 1.5-9.5 2.9-17.7 0-0.1-0.8-0.6-1.8-0.6-2 0-3.1 1-3.7 3.5-1.3-2.4-3.9-3.8-6.9-3.8-6.4 0-10.9 5.7-10.9 12.3-0.1 5.3 3.2 9.3 8.4 9.3zm3.1-17.8c3.6 0 5.2 2.7 5.2 5.6 0 3.7-2.5 8.2-7.1 8.2-3.1 0-5-2-5-5.5 0-4.2 2.4-8.3 6.9-8.3zm13.9 17.8h0.6c1.3 0 2.1-0.5 2.4-2.4l2-11.3c1.5-2.2 2.8-3.2 5-3.2 2.1 0 3.4 1.6 3.4 4 0 0.4 0 0.8-0.1 1.2l-1.6 9.3c-0.3 1.9 0.8 2.4 2.1 2.4h0.5c1.3 0 2.1-0.6 2.5-2.4l2-11.3c1.5-2.2 2.9-3.2 5-3.2 2 0 3.5 1.2 3.5 3.8 0 0.6-0.1 1.4-0.3 2.3l-1.5 8.4c-0.3 1.9 0.7 2.4 2.1 2.4h0.6c1.5 0 2.1-0.6 2.4-2.4l1.6-9.3c0.2-1 0.3-2 0.3-2.8 0-4.1-2.8-6.7-6.7-6.7-3.5 0-5.9 1.8-7.5 4.5-0.8-2.8-3.2-4.5-6.3-4.5-2.7 0-5 1.3-6.6 3.7 0.1-2.6-1.4-3.3-3-3.3-0.7 0-1.3 0.2-1.4 0.3l-3.2 18.2c-0.3 1.7 0.8 2.3 2.2 2.3zm-98.2 0c6.1 0 9.6-2.7 9.6-4.9 0-1.5-1-2-2.2-2.1-1.6 2.1-3.8 3.1-6.9 3.1-2.7 0-5.9-1-6.1-5.8h13.9c1.5 0 2.6-0.9 2.6-2.7 0-2.8-0.6-4.7-1.9-6.3-1.4-1.8-4-2.9-6.9-2.9-9.1 0-12.3 6.7-12.3 12.5 0.1 5.4 4.1 9.1 10.2 9.1zm1.9-18c1.6 0 2.9 0.5 3.7 1.4 0.7 0.8 1 2 0.9 3.4h-11.6c1.1-2.9 3.7-4.8 7-4.8zm11.2 25.9h1c1.9 0 2.5-1.1 3.4-2.7l13-21.9c-0.4 1.5-0.6 3.2-0.5 4.8 0.2 7.4 5.2 11.8 12.5 11.8 3.5 0 6.2-1.3 7.7-3.3-0.1 2.1 1 3 2.6 3 0.9 0 1.5-0.3 1.5-0.4l2.1-11.8c0.3-1.8-0.4-2.7-2.1-2.7h-8.3c-1 0-1.5 0.2-1.8 0.5-0.5 0.5-0.7 1.7-0.7 2.3 0 0.9 0.8 1.4 2.1 1.4h5.9c-0.8 4.1-3.4 7-7.9 7-4.7 0-7.9-3-8.1-8.1-0.2-6.4 4-11.7 10.1-11.7 3.5 0 6.3 1.9 7.4 4.4 0.1 0.2 3.4 0.2 3.3-2.6 0-1-0.6-2.2-1.7-3.2-1.7-1.7-5-3.2-9.3-3.2-6.1 0-10.8 3.3-13.3 8.2-0.5-0.6-1.3-1-2.1-1-1.4 0-2.2 0.4-3.5 2.7l-6.4 11.3-2.4-11.3c-0.5-2.1-1.2-2.7-2.6-2.7-1.6 0-2.9 1.1-2.8 1.4l4.6 18.2-4.8 7.8c-0.7 0.7-0.8 1.8 1.1 1.8zm-81.4 13.7h-14.6v-6.8h-1.9v15.6h1.9v-7.3h14.6v7.3h1.9v-15.6h-1.9zm12.8-6.8-9.2 15.6h2.2l2-3.5h12.5l2.1 3.5h2.2l-9.3-15.6zm-4 10.5 5.3-9.2 5.4 9.2zm26.9-10.5-9.2 15.6h2.2l2-3.5h12.5l2.1 3.5h2.2l-9.2-15.6zm-4 10.5 5.3-9.2 5.4 9.2zm30.8-3.4c-1-0.1-1.8-0.2-2.3-0.2h-7.1c-1 0-1.8-0.2-2.3-0.5s-0.8-1-0.8-2c0-0.5 0.1-1 0.2-1.4s0.5-0.7 1-0.9 1.3-0.4 2.4-0.5 2.2-0.1 3.2-0.1h0.7c1.4 0 2.5 0.1 3.3 0.2 0.9 0.1 1.5 0.2 1.8 0.4s0.6 0.4 0.7 0.8c0.2 0.4 0.2 0.9 0.2 1.7h1.9c0-1.4-0.3-2.5-0.9-3.2s-1.5-1.1-2.6-1.2-2-0.2-2.5-0.2h-2.5c-1.4 0-2.6 0-3.7 0.1s-2.1 0.3-2.9 0.6-1.4 0.8-1.7 1.5-0.5 1.6-0.5 2.7c0 1.3 0.4 2.3 1.2 2.9s1.9 0.8 3.4 0.8l4.2 0.1h3.6c1.2 0 2.1 0.2 2.7 0.5 0.5 0.3 0.8 1 0.8 2.2 0 0.9-0.2 1.5-0.6 1.9s-1.2 0.7-2.3 0.8-2.5 0.2-4.1 0.2c-1 0-2 0-3-0.1s-1.9-0.2-2.5-0.4-1-0.5-1.1-0.9-0.2-1-0.2-1.9v-0.3h-1.9c0 1.7 0.3 2.9 0.8 3.6s1.4 1.1 2.6 1.3 2.1 0.3 2.7 0.3h3.8c1.2 0 2.3 0 3.3-0.1s1.9-0.3 2.6-0.6 1.2-0.8 1.5-1.4 0.4-1.4 0.4-2.4c0-1.4-0.3-2.5-0.9-3.1-0.8-0.8-1.6-1.1-2.6-1.2zm15.5 8.5h1.9v-7.2h12.4v-1.6h-12.4v-5.2h13v-1.6h-14.9zm36.6-14h7.9v14h1.9v-14h7.9v-1.6h-17.7zm21.3 6.7h13.1v-1.5h-13.1v-5.2h13.6v-1.6h-15.5v15.6h15.7v-1.6h-13.8zm24.7-8.3-9.2 15.6h2.2l2-3.5h12.5l2.1 3.5h2.2l-9.2-15.6zm-4 10.5 5.3-9.2 5.4 9.2zm30 2.9-9.3-13.4h-3.1v15.6h1.9v-14l9.7 14h1.6l9.7-14v14h1.9v-15.6h-3zm-86.1-13.4-4.3 3.1 1 1.6 3.3-2.5v13.4h1.9v-15.6zm5.3 0.4c-0.1-0.1-0.2-0.1-0.3-0.2-0.1 0-0.2-0.1-0.4-0.1s-0.3 0-0.4 0.1c-0.1 0-0.2 0.1-0.3 0.2s-0.2 0.2-0.2 0.3c-0.1 0.1-0.1 0.2-0.1 0.4 0 0.1 0 0.3 0.1 0.4s0.1 0.2 0.2 0.3 0.2 0.2 0.3 0.2 0.2 0.1 0.4 0.1 0.3 0 0.4-0.1c0.1 0 0.2-0.1 0.3-0.2s0.2-0.2 0.2-0.3c0.1-0.1 0.1-0.2 0.1-0.4 0-0.1 0-0.3-0.1-0.4s-0.1-0.2-0.2-0.3zm0 1c0 0.1-0.1 0.2-0.2 0.3s-0.2 0.1-0.2 0.2c-0.1 0-0.2 0.1-0.3 0.1s-0.2 0-0.3-0.1c-0.1 0-0.2-0.1-0.2-0.2-0.1-0.1-0.1-0.2-0.2-0.3 0-0.1-0.1-0.2-0.1-0.3s0-0.2 0.1-0.3c0-0.1 0.1-0.2 0.2-0.3s0.2-0.1 0.2-0.2c0.1 0 0.2-0.1 0.3-0.1s0.2 0 0.3 0.1c0.1 0 0.2 0.1 0.2 0.2 0.1 0.1 0.1 0.2 0.2 0.3 0 0.1 0.1 0.2 0.1 0.3s0 0.2-0.1 0.3z"/><path d="m227.6 55c0.1 0 0.1-0.1 0.1-0.2s0-0.2-0.1-0.2c-0.1-0.1-0.2-0.1-0.3-0.1h-0.4v1.1h0.2v-0.5h0.2l0.3 0.5h0.2l-0.3-0.5c-0.1 0 0 0 0.1-0.1zm-0.4 0h-0.2v-0.3h0.4l0.1 0.1v0.2l-0.1 0.1h-0.1c0-0.1-0.1-0.1-0.1-0.1z"/><path class="st4" d="m209.5 45.8-0.8 1.3h111.7l0.7-1.3zm-103.9 1.3h93.5l0.7-1.3h-93.4z" fill="#DA291C"/></g>
				</svg>
