<?xml version="1.0" encoding="UTF-8"?>
<svg id="Layer_1" xmlns="http://www.w3.org/2000/svg" version="1.1" xmlns:i="http://ns.adobe.com/AdobeIllustrator/10.0/" xmlns:xlink="http://www.w3.org/1999/xlink" viewBox="0 0 688 210.62">
  <!-- Generator: Adobe Illustrator 30.1.0, SVG Export Plug-In . SVG Version: 2.1.1 Build 136)  -->
  <defs>
    <style>
      .st0 {
        fill: #fcd700;
      }

      .st1 {
        fill: url(#linear-gradient1);
      }

      .st2 {
        fill: #ea1d2d;
      }

      .st3 {
        fill: url(#linear-gradient);
      }
    </style>
    <linearGradient id="linear-gradient" x1="344.0001" y1="-113.8072" x2="344.0001" y2="-65.9512" gradientTransform="translate(0 96.8128) scale(1 -1)" gradientUnits="userSpaceOnUse">
      <stop offset=".2" stop-color="#505050"/>
      <stop offset=".8" stop-color="#666"/>
    </linearGradient>
    <linearGradient id="linear-gradient1" x1="471.518" y1="-111.306" x2="494.0971" y2="-111.306" gradientTransform="translate(-14366.0024 3528.9552) scale(30.4677)" gradientUnits="userSpaceOnUse">
      <stop offset="0" stop-color="#afafaf"/>
      <stop offset=".5" stop-color="#585858"/>
      <stop offset="1" stop-color="#afafaf"/>
    </linearGradient>
  </defs>
  <path class="st3" d="M56.9938,177.8176c0-8.94-6.245-14.3304-16.7629-14.4624H.0659v47.1992h6.8366v-17.1576h32.6054c5.8506,0,9.4003,2.9584,9.4003,7.8232v9.3344h6.9681v-9.2688c0-5.0616-2.5637-8.94-7.0995-10.9128,5.2589-2.0376,8.3486-6.5736,8.3486-12.4896l-.1315-.0656h-.0001ZM40.231,187.152H6.7711v-17.5512h33.4599c9.1374,0,9.8606,6.7048,9.8606,8.808s-.7231,8.8088-9.8606,8.8088v-.0656ZM176.832,172.6904c-3.484-7.0344-7.4288-9.9264-13.7392-9.9264s-10.452,2.9576-13.8048,9.9264l-17.9456,36.6808-.592,1.1832h7.3624l.1976-.46,6.376-13.0816h36.6152l6.3768,13.0816.1968.46h7.3632l-.592-1.1832-17.9464-36.6808h.132,0ZM147.8416,190.8336l7.9544-16.3032c1.9064-3.8784,4.0096-5.456,7.2312-5.456s5.3248,1.5776,7.2312,5.456l7.9536,16.3032h-30.3704ZM266.8256,186.9552c0,15.9736,6.9024,23.468,21.824,23.5992h36.944v-6.6392h-36.484c-11.2408,0-15.3816-4.6016-15.3816-16.8944s4.1408-16.8944,15.3816-16.8944h36.484v-6.7056h-36.944c-15.1192.132-21.824,7.4288-21.824,23.6v-.0656ZM402.9656,210.5544h6.8368v-47.1336h-6.8368v47.1336ZM543.7736,203.7176c-6.508,0-8.02-2.1032-19.8521-17.9456l-.5264-.7232c-12.7528-17.0264-16.1712-21.628-27.2808-21.6936h-5.5872v47.1992h6.7048v-40.3624c6.1136,0,7.6912,2.0376,19.2608,17.1576l1.4464,1.84c12.8184,16.7632,16.3032,21.2992,27.0176,21.3648h5.588v-47.1992h-6.7712v40.3624h.0001ZM681.1632,186.232v17.6832h-29.976c-11.2408,0-15.3824-4.6016-15.3824-16.96s4.1416-16.8288,15.3824-16.8288h36.2872v-6.7056h-36.7473c-14.9224.132-21.8248,7.6256-21.8248,23.5344s6.9688,23.5336,21.8248,23.6648h37.2072v-24.3224h-6.8368l.0656-.0656h.0001Z"/>
  <path class="st1" d="M176.4376,134.2344h-6.968C92.4256,134.2344.0659,135.8776.0659,137.0608s76.2546,4.1416,169.4693,4.1416h349.0616c77.0432,0,169.4032-1.5776,169.4032-2.8272,0-1.2488-76.2544-4.1408-169.4688-4.1408H176.4376Z"/>
  <path class="st2" d="M296.3408,48.908v29.1208c0,4.8648-4.1416,8.7432-9.2032,8.7432s-9.2032-3.944-9.2032-8.7432v-29.1208h-16.04v32.2104c0,10.9128,11.2416,19.7216,25.1776,19.7216s25.1768-8.8088,25.1768-19.7216v-32.2104h-15.908ZM348.404,14.3304v84.6688h16.1056V14.3304h-16.1056ZM321.1232,98.9992h16.1056V14.3304h-16.1056v84.6688ZM242.1736,55.0216c4.4048-4.1416,7.1-9.664,7.1-15.7112,0-5.5224-2.104-10.5184-5.7848-14.528-3.8792-4.2072-10.6496-6.6392-19.8528-6.6392h-27.544v80.7904h35.6296c13.6728-.1976,24.6512-10.5184,24.6512-23.1392,0-9.2032-3.2208-15.7768-14.1336-20.7728h-.0656ZM228.632,84.9968h-15.448v-52.9176h10.7808c4.7328,0,8.5456,4.3384,8.5456,9.0712s-3.8128,8.5464-8.5456,8.5464h-5.588v14.5272h10.2552c5.7192,0,10.0576,4.6016,10.0576,10.3864-.1968,5.9168-3.8128,9.992-10.0576,10.3864h0Z"/>
  <path class="st2" d="M53.8383,42.0712c0-13.1472-10.9123-23.8624-24.3226-23.8624H0v80.7904h17.1573V32.0792h8.743c6.3107,0,11.1752,4.7328,11.1752,10.5832s-5.1274,10.584-11.5039,10.584h-4.0099v19.3264l17.1573,26.4264h20.2469l-23.7309-33.7232c10.6493-2.5632,18.5377-11.964,18.5377-23.2048h.0658-.0002ZM83.8144,46.804c-14.7252,0-26.6892,12.096-26.6892,27.0176s11.964,27.0184,26.6892,27.0184c11.2408,0,19.984-5.0624,24.5192-13.0816l-13.0816-6.048c-1.6432,3.6152-5.5872,6.1136-10.1232,6.1136-6.3106,0-10.9122-4.6016-10.9778-10.0576v-.5264h35.5634c.1312-1.1176.1312-2.2352.1312-3.4184.2632-17.4856-11.3064-27.0176-26.0312-27.0176ZM74.151,67.9712c0-5.456,4.4043-9.86,9.8602-9.86s9.8608,4.404,9.8608,9.86h-19.721ZM173.9392,98.9992V14.3304h-16.1056v40.0992c-4.2728-4.2072-9.992-6.8368-16.2368-6.8368-13.3448,0-24.1256,11.8328-24.1256,26.3608s10.7808,26.36,24.1256,26.36c6.3104,0,11.964-2.6952,16.3024-6.968v5.6536h16.04ZM146.1984,86.6408c-6.508,0-11.8328-5.7848-11.8328-12.9504s5.3248-12.9504,11.8328-12.9504,11.8328,5.7848,11.8328,12.9504-5.3248,12.9504-11.8328,12.9504Z"/>
  <path class="st0" d="M542.656,110.1744c30.4232,0,55.0872-24.6632,55.0872-55.0872S573.0792,0,542.656,0s-55.088,24.6632-55.088,55.0872,24.664,55.0872,55.088,55.0872Z"/>
  <path class="st0" d="M687.2112,91.9648s-.132-.328-.1976-.46c0-.2624-.1312-.6576-.1312-.9856-.132-.9208-.1976-1.8408-.592-2.6952-.5912-1.3808-1.9064-2.3664-3.352-2.6296-.132-.592-.3952-1.052-.5264-1.2488-.92-1.3152-2.3008-2.2352-3.3528-2.8928-.2624-.1968-.5912-.3944-.7224-.5256l-.2632-.1976c-.6576-.5256-1.512-.7888-2.3664-.7888-1.4464,0-2.9584.92-3.8784,2.0376-.132-.3944-.3944-1.38-.592-1.972-.1968-.7888-.3944-1.4456-.5912-2.0376,0,0,0-.1976-.0664-.3288-.3944-.9856-1.2488-3.4184-3.944-3.8128-.7232-.1312-1.4464-.1312-2.1032-.1968-1.3152,0-1.7752-.2632-1.972-.3288,0-.1312.0656-.3288.1968-.592.2632-.5912.3944-1.1176.5256-1.6432.5264-1.8408.9208-4.536.4608-6.8368.5912.0656,1.3144.132,2.0376.132,2.1696,0,4.4704-.4608,6.4424-1.3152h.1312c3.8784-1.972,7.7568-6.3104,7.5601-11.7664v-.132c-.4608-4.7328-3.0896-9.1368-8.02-13.5416,1.2488-.3288,2.6296-.7888,3.8784-1.6432,3.5496-2.3664,5.0616-6.6392,4.2072-11.7672v-.3288c-.6576-2.6288-2.564-2.8264-3.1552-2.8264-.7888,0-1.512.3288-2.104.8544-.1312.132-.2625.1976-.3944.3288-.3288.2632-.6576.592-.92.7888-.7888.46-1.8408.6576-3.024.9208-.8544.1968-1.9064.3944-2.8264.7224-4.4048,1.512-7.1656,3.8792-8.2832,7.1-.6577,1.9064-.3944,4.2728.7888,6.376v.132c1.4464,2.1032,3.3528,3.944,4.996,5.5872,2.3664,2.3008,4.6016,4.4048,5.0616,7.0344.0656.46.1976,1.3144-1.3144,2.4976-.592.3288-1.512.5256-2.4328.5256-1.38,0-2.9576-.3944-4.2064-1.0512h-.0664c-1.9064-.9864-3.8784-2.3008-5.7848-3.5496-3.0896-2.0384-6.2448-4.1416-9.9256-5.3904-1.7096-.7232-3.4848-1.1176-5.0624-1.4464-2.0376-.3944-3.944-.7888-5.2584-1.8408l-.1976-.1312c-.5912-.3944-1.1832-.7888-1.7744-1.2496-1.7752-1.3144-3.8128-2.7608-6.1792-3.352-.9208-.3288-1.8408-.4608-2.564-.5264-.92-.1312-1.4464-.1968-1.8408-.46-.3944-.2632-.7888-.5912-1.1832-.8544-1.6432-1.2488-3.3528-2.4984-5.1928-3.4184-3.0896-1.512-6.1792-2.3008-9.664-3.024-.1968,0-.6568-.5912-.9856-.9856-.5264-.6576-1.1832-1.3808-2.0376-2.0384-2.564-2.0376-5.5224-3.8784-9.4664-3.8784h-1.052c-2.3664.132-4.404,1.7096-5.7192,2.8272-2.892,2.5632-6.0472,4.7984-9.0712,7.0336-4.7328,3.4184-9.5976,6.968-13.8704,11.5696-4.4704,4.6016-6.1136,10.3864-7.4944,15.448-.1968.7232-.3944,1.4464-.6568,2.2352-.3944,1.38-.7232,2.8264-1.1176,4.2072-1.7752,7.0336-3.4184,13.6728-9.992,17.9456-1.052.6576-1.644,1.9064-1.512,3.0896.1312,1.2496.9856,2.3008,2.1688,2.7616.5264.1968,1.4464.3944,2.4984.3944,0,.7232.3288,1.38.7888,1.972.46.5256,1.3144,1.1832,2.8264,1.2488h.132c4.5352,0,7.7568-2.6296,10.5176-5.3248.9857.8544,2.2352,1.7752,3.8784,2.104h.9864c1.6432-.1976,3.0896-.3944,4.5352-.3288,1.3152.3944,2.6952.92,4.076,1.4464,1.052.3944,2.1032.7888,3.2208,1.1832l.5264.1968h.46c2.9584-.1312,4.6016-2.7608,5.2592-3.7472l.1312-.1968v-.1976s.2632-.46.3288-.7232l.1968.6576c.3944,1.3808.7888,2.8272,1.7096,3.8784.8544.9864,1.972,1.512,3.2864,1.512.46,0,.9208-.0656,1.2496-.1312h.1312s.0656.1312.1312.1312c.5264.5264,1.3152,1.3808,2.564,1.7752,1.1832.3944,2.432.7232,3.6152,1.052,1.4464.3944,2.9584.7888,4.2728,1.3144h.132c1.0512.3944,2.2344.7232,3.484.7232,1.9064,0,3.0896-.7232,4.0752-1.5776,1.644-1.3152,2.3008-2.7608,2.6296-4.1416.2632,0,.5264-.1312.9208-.1976,2.0376-.6568,4.0096-4.404,4.0096-4.404.1312-.2632.3288-.5256.46-.7232.5264-.7232.7232-1.5776.7232-2.3664,0-1.972-1.512-3.484-3.484-3.484h-5.456c-.46,0-.9208.1312-1.3152.2632l-.0656-.0664c-.2625-.328-.5912-1.1832-.9856-1.38,0,0,.1312,0,.1312-.0656l1.052.1312c.6568.0656,1.38.1312,2.0376.1312,2.432,0,4.6016-.3944,6.7048-.7888,1.8408-.3288,3.7472-.1312,5.6536-.1312h.7232c.7888,0,1.6432.0656,2.4984.1312.8544.0656,1.9056.1976,2.892.1976h1.052c.9856,0,1.9064-.1976,2.7608-.46.0656.46.1968,1.0512.3288,1.7744l.1312.592c.46,2.1032,1.2488,5.3248,5.0616,7.8224l.592.3944c1.7744,1.1832,2.8264,1.8408,5.456,2.2352.6576.1312,1.972.0656,2.7608-.1312,3.3528-.7232,7.0344.1312,9.9919,2.3008l.2632.1968s.5912.3944.92.7232c.6576.592,1.512,1.3144,2.6952,1.7088.7232.3288,1.5776.4608,2.4328.4608,1.6432,0,2.4976-.5264,3.1552-.8552.1312.132.1968.3288.3288.4608.46.6568,1.0512,1.4456,1.9064,2.2344,1.5776,1.512,3.6152,1.7096,4.996,1.7096.6568,0,1.2488,0,1.7744-.0656h1.5776c.3944,0,.6576-.132.7888-.132.7232.5264,1.4464.592,1.7752.592.2632,0,.5912,0,.8544-.1312l3.1552-1.052c.9208-.2632,1.644-.9208,1.972-1.7752.6576-1.512.0008-2.9584-.46-4.0096l.132-.5264h0ZM587.7512,76.32s-.1312-.2632-.2632-.3944c-.0656-.132-.1968-.2632-.328-.46-.4608-.7232-.8552-1.3152-1.052-1.8408.92.0656,1.972.1968,2.9584.2624l-1.3808,2.4328h.0656Z"/>
  <path class="st0" d="M540.8816,80.4616l-1.6432-.8552c-1.4464-.8544-2.3672-2.432-3.4184-4.1408-.4608-.7888-.9864-1.644-1.512-2.3672-.5264-.7224-1.2496-1.38-1.8408-1.9064-.1312-.0656-.2632-.1968-.3288-.328-1.7752-4.8648-3.6816-10.584-4.1416-16.7632-.1312-1.5776-.9856-4.2072-1.972-5.916-2.8264-4.6672-9.4-12.2928-9.7944-12.6872-.2632-.2632-.5264-.5264-.7232-.7888l-.1976-.1976-11.7008-9.7288-.1976-.1312c-2.432-1.7096-3.352-2.104-5.2584-2.8272-3.024-1.1176-7.1656-.92-10.1896.3288h-.1968c-.9864.6576-1.972,1.2488-2.8928,1.8408-1.38.92-2.6952,1.7088-4.0752,2.1688h-.2632c-1.1176.592-2.432.9864-3.7472,1.3808-2.7608.8544-5.916,1.8408-8.48,4.2072-.6568.592-1.1832,1.052-1.5776,1.512-.6576.5912-1.2488,1.1176-1.4464,1.3144h-.5256c-4.404,0-7.6256,1.1176-10.912,3.8128h-.132c-1.972,1.9064-3.944,3.5496-5.9816,4.2728-.8544.2632-1.9064.3944-3.0896.5264h-.132c-1.972.1968-2.3664.1968-4.2728.6568-3.352.7888-6.5736,3.2872-9.1368,5.2592-1.1176.92-1.9064,1.4464-2.2352,1.6432-.1976.132-.5264.3288-.7232.4608-2.8272,1.6432-5.3248,3.0896-8.2832,3.0896h-.1312c-1.6432-.132-3.1552-1.2496-3.6816-2.6952-.46-1.9064.0664-3.7472,1.644-5.2592.9856-.9864,2.1688-1.972,3.2864-2.9584,1.972-1.7088,3.8784-3.2864,5.3248-5.1928,2.2352-2.9584,1.972-7.6256-.5256-10.3864-1.9064-2.104-5.2592-3.1552-7.8888-3.7472h-.1968s-.3288-.1312-.4608-.1312h-.1312s-.5912-.132-.92-.1976c-.5264-.0656-.9864-.1968-1.4464-.2632-.92-.2624-1.8408-.92-2.8264-1.5776-.7232-.46-1.4464-.9856-2.2352-1.4456l-2.1696-1.1832-1.3144,2.0376c-1.052,1.5776-1.4464,3.3528-1.3152,5.3904v.1312c.4608,3.6816,3.4184,7.4944,6.968,9.1376h.0664s.2624.1312.3944.1968c.8544.3288,1.6432.4608,2.3664.5264-1.9064,1.6432-3.8128,3.352-5.5224,5.3904-3.2864,3.6152-3.484,9.4656-1.972,13.4104,1.9064,5.1272,7.1,8.0192,11.3728,8.5456.7232.1312,1.512.1968,2.3008.1968,1.3144,0,2.6296-.1968,3.8784-.3944.0656,1.972.1312,3.2216.2632,3.9448.3288,1.6432,1.0512,3.4176,1.512,4.6016v.1312c-.9864.5912-2.3672,1.1832-2.8928,1.3144-.7888.0656-1.5776.132-2.1696.1976h-.92c-.92.1312-1.7088.46-2.3664,1.1176-.8544.7888-1.3152,2.1032-2.0376,3.8784-.2632.7232-.592,1.4464-.8552,2.0376-.1968.3288-.5256.6576-.92.92-.46-.8544-1.2488-1.4456-1.7088-1.84h-.0664c-1.1832-.9864-3.0896-.9864-4.404-.0656-.1976.1312-.3944.2624-.592.3944l-.1312.1312c-.8544.5912-1.7752,1.1832-2.8264,2.0376-.6576.592-1.1832,1.3808-1.3808,2.3664-.2632,0-.46.0664-.7232.1976-1.5776.6576-3.4184,2.4976-3.5496,4.404,0,.6576-.1312,1.9064-.2632,2.3008,0,0-.0656.0656-.1968.1976-1.052,1.1832-1.3808,3.3528,0,4.7328.92.92,4.536,1.9064,5.2584,1.9064h.592l.1976-.1312c.1968-.0656.46-.132.5912-.2632h.8544c.46.1312.9208.1976,1.5776.3288.9208.1968,2.0384.46,3.156.46,1.2488,0,2.3664-.2632,3.352-.7888,1.8408-.8544,2.6952-2.432,3.4184-3.5496.1976-.3288.3944-.6576.592-.9208.1312,0,.1968,0,.3288.0664.5256.1312,1.1168.2624,1.7744.328,2.9584.132,5.5216-1.512,6.7712-2.4976.5256-.3944.9856-.8544,1.38-1.2488.4608-.4608.9864-.9208,1.3808-1.1832.46-.1976,1.052-.2632,1.7752-.2632,1.2488,0,2.6952.2632,3.944.46,2.5632.6576,5.3248.3288,7.428-.8544,1.1176-.6576,2.2352-1.2488,3.1552-1.7096h.132c.5256-.328.92-.5912,1.3144-.7888,2.1032-1.1832,3.6816-3.6808,4.6672-5.5872.46-.9208,1.1832-2.6952,1.3808-3.1552h.5912c1.3808,0,2.8272-.1976,4.076-.46.8544-.132,1.7088-.2632,2.3664-.3288h.92c1.2496,0,3.0904.1312,4.4704.3288,1.1832.1312,1.972.2624,3.484.328h.6576c.46,0,1.052.0664,1.6432.0664,1.5776,0,2.8264-.3944,3.8784-.8552.2632.2632.7888.9864,1.1176,1.2496h-.1312c-.9864,0-1.9064.3944-2.564,1.0512-.8544-.3944-2.3008-.3944-3.6152-.3288-1.512.132-2.9584.3288-4.4704.6576-1.1832.2632-1.972.7888-2.4976,1.8408-.4608,1.052-.3944,2.3008.1968,3.4184.7888,1.4464,1.5776,2.6952,2.3664,4.0752l.3288.592c.3944.6576,1.3144,1.7088,3.2208,1.7088h.7896s-.0008,0,.0656,0c0,.0664.1312.1976.1312.2632.592,1.052,1.3144,2.3664,2.6296,3.4184,1.3144,1.1176,3.0896,1.7752,4.996,1.7752.8544,0,1.6432-.132,2.3664-.3288,3.5496-1.1176,6.968-2.2352,10.3208-3.9448h1.38c1.3808-.1312,3.4184-.2624,4.9304-1.9064l.1312-.1312.132-.1968c.5912-.9208,1.1832-1.7752,1.7088-2.6952,0,.1312,0,.1968.0664.328.7888,2.3672,3.1552,3.4184,5.1928,3.4184h.1312c2.3008-.1312,4.2728-.8544,6.048-1.4456h.1312s.5264-.1976.7232-.3288h.1976c1.3144-.6576,3.2864-.7232,5.5872-.3288h.6576c2.432-.1312,4.3384-1.3808,5.916-2.6296,2.9584,3.1552,6.7712,4.7328,11.2416,4.7328h1.2488l.1968-.1312c1.4464-.3288,2.4328-1.4464,2.564-2.892v-.8552c.2632,0,.5256-.0656.7888-.1312,1.3808-.3288,2.432-1.3808,2.6296-2.7608.1968-1.4464-.46-2.7608-1.7097-3.4184l.132-.1312h0ZM502.228,73.0328s-.2624.2632-.3944.3944c-.7232.6576-1.6432,1.512-2.432,2.6296-.5256-.8544-.8544-1.512-1.1832-2.1032,1.1832-.1976,2.432-.5264,3.3528-.9864h.5912v.1312l.0656-.0656h0Z"/>
  <path class="st2" d="M403.6888,87.4952h-.132c-.8544.3288-1.84,1.4464-1.9056,2.104-.1976,2.892-.2632,3.1552-1.052,4.0752-.1976.2632-.3944.7888-.132,1.052.1976.1968,3.024,1.1176,3.3528,1.1176,0,0,.46-.7232,1.052-2.6952.3288-1.052.6576-2.3008,1.052-3.3528,0-.0656,0-.1968-.1976-.5256-.3288-.4608-1.4464-1.7752-2.0376-1.7752h0ZM406.844,87.4296s.592.3944,1.052.3944c.2624,0,.5912-.0656.8544-.2632,1.5776-.7888,3.2208-3.7472,3.2872-3.944.1968-.46-.3952-.92-1.052-1.4464h-.0656s-.8552-.2624-1.2496,0c-.2624.1976-.5256.3288-.7888.5264-.8544.5256-1.7088,1.1168-2.5632,1.84-.3288.2632-.5264.7888-.5264,1.1832,0,.3288,0,.592.132.7232.0656.0656.7224.7888.8544.9208l.0656.0656ZM539.6976,82.8936c-.7888-.3944-1.7088-.8544-1.7088-.8544-2.0384-1.1832-3.2872-3.2208-4.4048-5.1272-.46-.7888-.92-1.512-1.4456-2.2352-.3289-.46-.9208-.9864-1.3808-1.4464-.46-.3944-.8544-.7888-.92-.9864-1.9064-5.1272-3.9448-11.1752-4.4704-17.9456-.0656-1.052-.7888-3.2872-1.6432-4.7336-2.6952-4.3384-9.072-11.832-9.4664-12.2264-.1968-.2632-.46-.46-.6577-.6576l-.1968-.1968-11.504-9.5976c-2.3008-1.5784-3.024-1.9064-4.6672-2.4984-1.052-.3944-2.3008-.5912-3.616-.5912-1.6432,0-3.2864.328-4.6008.92-.9208.46-1.8408,1.052-2.696,1.6432-1.4456.9208-3.0232,1.9064-4.6672,2.4984-1.3144.5912-2.6952.9856-4.0096,1.4456-2.6296.7888-5.3248,1.644-7.4936,3.616-.592.5912-1.1176,1.052-1.5784,1.4464-1.972,1.84-2.1688,2.0376-3.8128,2.0376-3.7464,0-6.4416.92-9.2024,3.1552-2.1696,1.972-4.4048,3.8784-6.9024,4.7328-1.1176.3944-2.3672.5264-3.7472.6576-1.9064.1976-2.2352.1976-4.0104.592-2.7608.6568-5.6528,2.892-8.0856,4.7984-.7888.6576-1.9056,1.4464-2.3664,1.7752-.2624.1968-.5912.3944-.8544.5256-3.024,1.7752-5.916,3.484-9.5976,3.484h-.2632c-2.7608-.1968-5.2584-2.1032-6.1128-4.6016-.7888-2.8264,0-5.7192,2.3008-7.9536,1.0512-1.052,2.3008-2.104,3.4176-3.0904,1.9064-1.5776,3.6816-3.0896,4.9304-4.7984,1.4464-1.9064,1.2496-5.1928-.3288-6.968-1.6432-1.7752-5.1928-2.6296-6.5736-2.9584h-.2624s-.3944-.1312-.5264-.1312c-.8544-.1976-1.7088-.2632-2.4976-.46-2.1696-.592-3.8128-2.2352-5.7192-3.2872-.7232,1.1176-.9864,2.3664-.8544,3.6816.3944,2.892,2.7608,5.8504,5.3904,7.0336.1312,0,.1968.0656.3288.1312.8544.3288,1.7088.3944,2.5632.3944h1.052c.5256,0,1.1176,0,1.7088.132.5264.1312,1.052.6568,1.1176,1.3144,0,.3944-.1312.6576-.5912,1.052s-.9208.7232-1.3152,1.1176c-2.3008,1.9064-4.6016,3.8128-6.5736,6.1792-2.5632,2.7608-2.6952,7.5592-1.512,10.7152,1.512,4.0752,5.7192,6.376,9.2688,6.836.6576.132,1.2496.132,1.9064.132,2.0384,0,4.0104-.5264,5.9168-.9864h.1968c.0656,0,.2632,0,.2632.46,0,.8552.1312,1.8408.1312,2.7616.0664,1.512.132,2.9576.2632,3.5496.2632,1.38.92,2.9576,1.3808,4.0752.1968.4608.328.7888.3944.9864.1968.5912,0,1.3144-.3944,1.6432-1.4464,1.3152-4.4048,2.3664-4.9304,2.4328-.8544.1312-1.7752.1312-2.4984.1968h-.7888c-.3288,0-.5912.1312-.7888.3944-.3944.3944-.8544,1.5776-1.38,2.8928-.3288.7888-.6576,1.6432-.9864,2.3008-.92,1.5112-2.432,2.432-3.944,3.2864-.3944.1976-.7232.46-1.1176.6576-.592.9856-1.2488,1.972-2.0376,2.6296-.592.5912-1.3808.7232-2.1696.7888-1.1832,1.3144-1.512,3.0896-1.9064,4.7984,0,.2632-.1312.5264-.1976.7888v.2632h.132c.5912,0,1.2488.1968,1.9064.3288.8544.1968,1.7744.3944,2.6296.3944.8544,0,1.512-.1976,2.1688-.5264,1.1176-.5256,1.7096-1.512,2.3008-2.4976.3944-.6576.7888-1.3144,1.3152-1.8408.328-.3288.7232-.5256,1.1832-.5256s.92.1312,1.38.2624c.3944.132.8552.1976,1.2496.2632,2.0376.1312,4.0096-1.1832,4.9296-1.9064.3944-.3288.8552-.7232,1.2496-1.1176.5912-.5912,1.2488-1.1832,1.972-1.6432.8544-.3944,1.8408-.592,3.0896-.592,1.5776,0,3.1552.3288,4.4696.5264.7232.1968,1.4464.2632,2.104.2632,1.2488,0,2.432-.2632,3.3528-.8552,1.1168-.6568,2.3-1.2488,3.2208-1.7088.5256-.2632.9856-.5264,1.3808-.7232,1.6432-.92,3.0232-3.4184,3.5496-4.4704.46-.9856,1.3144-3.024,1.3144-3.0896l-1.9064-1.5776v.132s-1.3144,2.1032-2.1688,3.0232c-3.3528,4.6016-8.8752,5.1936-13.2792,5.1936h-.92c-5.4568,0-9.8608,1.8408-13.0816,5.456-.132.1976-.3944.1976-.5264,0-.0656-.0656-.0656-.1968,0-.3944.0656-.3944.132-.46.3288-.92,3.4184-4.8648,9.2688-5.588,14.0024-5.6536,3.484-.2632,6.0472-.8544,8.2168-1.972,2.8264-1.4464,4.9304-4.6016,5.7192-7.1656.5256-1.6432.7888-3.4184,1.052-5.1272.1968-1.3808.3944-2.7608.7224-4.076,0-.1968.2632-.2624.3944-.2624h.132c.1968,0,.5256.1312.5256.3944-.46,2.6952-1.1176,6.3104.1312,9.4.592,1.1832,1.7752,1.7752,3.6816,1.7752,1.1832,0,2.432-.1976,3.6816-.3944.92-.132,1.84-.2632,2.6288-.3288h.9864c1.512,0,3.024.3288,4.4704.5912,1.2488.2632,2.5632.5264,3.8784.592h.7232c.46,0,.92.0656,1.4456.0656,1.1176,0,1.9064-.1968,2.4984-.7232.3944-.3288.2624-.8544.0656-1.4464v-.1312s-.1312-.1968-.1312-.3288c-.2632-.8544-.6576-2.1032,0-2.6296.0656-.0656.2624-.1312.328-.1312.132,0,.2632,0,.3288.1976.0664.2624.132.46.1976.7224.2632.9864.5912,2.0384,1.2488,2.8928,1.3152,1.7088,3.4184,3.3528,5.9824,4.6672,1.6432,1.1176,3.6808,3.0896,3.812,5.7848,0,1.2488-1.1832,2.0376-2.0376,2.6296-1.38.7232-3.5496,1.512-4.864,1.4464-.8552,0-1.644-.592-1.644-.6576-1.38-1.2488-1.1832-1.6432-2.1032-3.1552-.46-.7888-.9208-1.5776-1.5776-2.3008-.8552-.9208-1.9064-1.3152-3.3528-1.1832-1.3808.1312-2.6296.3944-4.1416.7232-.3288.0656-.5256.2624-.6568.5256-.132.3288-.132.6576.0656.9864.7888,1.38,1.512,2.6952,2.3664,4.0096l.3288.592c.1968.328.5912.3944.92.3944h1.2488c.7232,0,1.1176.1312,1.4464.5256.2632.3944.46.7888.6576,1.1176.5256.92,1.052,1.9064,1.972,2.6296.8544.7232,2.0376,1.1176,3.2872,1.1176.5256,0,1.1168-.0664,1.5776-.2632,3.6152-1.1176,7.1648-2.3008,10.452-4.076h1.8408c1.1832-.0656,2.3664-.1968,3.2208-1.0512,1.052-1.5784,1.972-3.156,2.8264-4.7992.7232-1.512.7232-2.9584,0-4.0752-2.1032-3.4184-2.4976-4.3392-3.352-6.64l-.0664-.0656c-.2624-.0656-.5256-.1968-.7232-.2632-.5256-.1968-1.0512-.3944-1.7088-.3944h-.0656c-.7232,0-1.2488.2632-1.4464.6576l3.8784,7.6912c.2632.592.5264,1.1832.3944,2.104-.1312.92-2.0376,3.8784-2.6296,4.2728-.1312.0656-.2624.1312-.328.1312,0,0-.2632,0-.132-.46.3288-1.2488.7888-4.1416.7232-5.0616-.1312-1.052-3.3528-6.4424-3.484-6.7056-.5256-.92-.9856-1.7744-.9856-2.7608,0-.46.3944-.7888.7224-.92.592-.1976,1.1176-.2632,1.7096-.3944,1.38-.3288,2.8264-.592,3.2864-1.3808,1.5776-2.3664,2.4984-4.7984,3.0896-8.2168,0-.132.132-.4608.3288-.4608.132,0,.2632,0,.3288.3288.592,3.2216-.1968,6.5736-2.1032,9.2688-.132.132-.1976.4608-.132.7232,0,.2632.3288.5264.3288.5264.7232.5256,3.484.1968,5.3904-.7888,1.512,0,2.8928-.2632,4.2728-.4608.46-.0656.8544-.1312,1.3152-.2624.1312.0656.2624.1968.2624.3288-1.1832,1.3144-1.8408,2.7608-2.2352,4.6016-.328.328-.6568.6568-1.0512.9856-1.2488,1.1832-2.6296,2.432-2.6952,4.076,0,0,0,.5912.5912.6568.1976,0,.4608-.0656.6576-.1968.2632-.0656.46-.1976.6576-.1976.1968,0,.3288.1976.3944.3944l-1.4464,2.104c-.5256.8544-.3288,1.8408-.0656,2.6952.1312.5256.0656.92.1968,1.3144.3288,1.052,1.644,1.5776,2.6952,1.5776,1.9064-.0656,3.616-.7224,5.2592-1.3144.2632-.1312.592-.1976.92-.3288,1.8408-.7888,4.2072-.92,7.1-.46,2.3008-.1312,4.0752-1.6432,5.7192-3.1552.7232,0,1.4456.46,2.2344,1.2488,2.4984,2.6952,5.588,4.0096,9.4008,4.0096h.8544c.3943-.1312.5256-.328.5256-.5912,0-.3288-.1968-.592-.6568-.7888l-2.104-1.1176c-1.7088-1.052-3.5496-2.3664-4.0752-4.076-.5264-1.84-1.5776-3.6808-2.3664-4.9296-.132-.2632-.3288-.4608-.5264-.7232-.3288-.4608-.5912-.8552-.8544-1.3152,2.3008.8544,3.6152,2.564,5.1936,5.3904,1.1832,2.104,4.2064,4.4048,7.0992,4.4048.3944,0,.7232,0,1.1176-.132.3288-.0656.5256-.2624.5256-.5256s0-.46-.2624-.592l-.132.2632h.0002ZM498.2176,48.5136s-.1968.3944-.328.3944c-.0664,0-.2632,0-.2632-.3288-.592-3.0896-.9864-4.6016-1.6432-6.048-.1976-.46-.5264-.8544-.7232-1.1832-.5264-.7232-.9864-1.3144-.46-2.1688.1312-.2632.5256-.3952.92-.3952.1968,0,.3944,0,.5256.132.592.2632,1.1832.9856,1.7752,2.1688,1.512,3.024.3288,7.3632.3288,7.3632l-.132.0656h0ZM517.6104,79.2784s-.0656.8544-.5256,1.2488c-.3952.3944-1.9072.5912-2.6296.5256-.7888,0-1.052-.1312-1.1832-.3944-.1976-.2624.1312-.7888.1312-.7888.0656-.1968.9856-2.0376,2.8264-2.5632,0,0,.592-.1976,1.1176,0,.5256.2624.3288,1.6432.2632,1.84v.132h0ZM522.8688,67.1168c-.1312.7232-.2624,1.052-.3943,1.2488-.0656.1976-.2625.5264-.7888.5264-.5912,0-.5256-.6576-.5256-.7888,0,0-.0656-1.9064-.46-2.6952-.3944-.8552-2.3008-3.2872-3.4184-3.2216-.2632,0-.9864.46-1.512,1.1176-.6576.8544-.6576.9208-.8544,1.052-.1976.1312-.46,0-.5264-.46-.0656-.5264-.1968-.9208,0-1.8408.2632-.92.4608-1.1832.7232-1.8408,0,0,.592-1.3144.7888-1.6432.592-.9208,1.3808-.8544,1.3808-.8544.1976,0,.92-.0664,1.6432.8544.8544,1.052.6576.9856.9208,1.3144.2624.3944.46.7888,1.1832,1.512.7232.7888,1.4464,2.2352,1.7088,3.1552.1976.9208.1976,1.7096.0656,2.4328l.0656.1312h-.0001ZM477.248,82.5648c.3288.46.5912,1.052.8544,1.644.46.9856.7888,1.7744,1.2488,1.9056.1976,0,.3944.0664.592.0664.9856,0,2.432-.5264,3.4184-1.3152.5912-.46.3944-.7888.1312-1.2488-.0656-.1312-.1968-.2632-.2632-.46-.2624-.5264-.46-1.052-.5912-1.5776-.2632-.9864-.5256-1.7752-1.5776-1.644-1.512.1976-2.9584.3288-4.536.3288,0,0-.5256,0-.6576.3288-.1968.3944.1976.7888.6576,1.1832.2632.1976.5256.46.6576.7232l.0656.0656h0Z"/>
  <path class="st2" d="M684.7792,93.1488c-.1976-.3288-.3288-.7232-.3943-.9208-.0664-.46-.132-.92-.1976-1.38-.0656-.7232-.1968-1.3808-.3944-1.9064-.2632-.6576-.9864-1.1176-1.7088-1.1176-.2632,0-.5264,0-.7232.1968-1.1176.5264-1.7096,1.1176-1.5776,2.3672.5912,1.7744.92,3.0232,1.2488,4.7984,0,.2632.1968,1.1176.6576,1.1176,0,0-.0008,0,.0656,0l3.0896-1.052s.2624-.1312.3288-.2624c.1968-.3944-.132-1.1176-.4608-1.7752l.0663-.0656h0ZM680.1776,85.4576c-.592-.9208-1.7096-1.644-2.564-2.2352-.3944-.2632-.7232-.5256-.9864-.7232l-.1968-.1312s-.46-.2632-.7232-.2632c-.9864,0-2.0376,1.1832-2.1032,1.5776,0,.592.7888,1.6432,1.9056,2.9584l.2632.2632c.5264.6568,1.1832,1.0512,1.7751,1.0512.6568,0,1.1176-.1968,1.7088-.7232.3944-.3944,1.3152-1.3144.9208-1.9064v.132h.0002ZM607.2096,80.9216c-.592.0656-1.1176.1312-1.7088.1312h-1.512c-.3288,0-.6576,0-.9208.0656v.0664c0,.0656-1.1176,1.972-.9856,3.2208.1312,1.3144,1.512,1.5776,2.4976,1.7752.3288.0656.7888.1312,1.1832.1312.7232,0,1.1832-.2632,1.4464-.7232.592-1.5776.9864-2.8264,1.1176-4.0096,0-.1976,0-.3288-.0656-.3944-.1976-.1976-.5264-.2632-.7232-.2632h-.3289ZM677.7448,90.0592l-.0656-.0656c-1.7744.1312-2.892-1.3808-4.0096-2.7616-.3288-.46-.7232-.92-1.052-1.3144-.592-.6576-1.1832-1.1832-1.7088-1.6432-.6576-.5264-1.1832-1.052-1.3808-1.4464-.2632-.5256-.5256-1.5776-.7888-2.4984-.1976-.7224-.3944-1.38-.5264-1.84,0-.0664-.0656-.1976-.1312-.2632-.3288-.8544-.7232-1.972-1.8408-2.1032-.5912-.0664-1.1832-.132-1.7744-.132-1.6432-.0656-3.2872-.3288-4.076-1.512-.7888-1.0512-.46-2.0376,0-3.1552.1976-.46.3288-.8544.46-1.3144.592-1.9728.7888-4.4048.3288-6.1136-.0656-.2632-.1312-.5264-.2624-.7888-.2632-.7232-.5264-1.7752-.3288-2.104.1968-.3288.3944-.3944.6568-.3944.2632,0,.592.0656.9208.1976.1968,0,.3944.0656.5912.1312.7888.1976,2.0385.3944,3.0896.3944,1.8408,0,3.7473-.3944,5.3904-1.1176,3.156-1.512,6.1792-4.9304,6.048-9.2032-.3944-4.2728-3.0896-8.4144-8.0856-12.6872-.1312-.1312-.2632-.1968-.3944-.3288-.6576-.5256-1.4464-1.2488-1.4464-1.84,0-.592,1.5776-.9864,2.564-1.1832.1976,0,.46-.132.592-.132h.2624c1.2488-.3944,2.564-.7232,3.616-1.4464,3.6152-2.432,3.4839-6.7048,3.0896-9.0712v-.1976c-.0664-.328-.132-.7224-.4608-.7224-.0656,0-.1968,0-.2624.1312-.132.0656-.1976.1968-.3288.3288-.3944.3944-.8544.8544-1.3808,1.1176-1.1176.6568-2.4976.9856-3.8784,1.2488-.8544.1968-1.7088.3288-2.564.6576-3.6152,1.2488-5.784,3.0232-6.6392,5.3904-.3944,1.2488-.1968,2.7608.592,4.2072,1.1832,1.84,2.892,3.484,4.536,5.0616,2.5632,2.4976,5.2584,5.0616,5.8504,8.48.3288,2.0376-.46,3.7464-2.4984,5.1928-1.0512.6576-2.432.9864-3.944.9864-1.8408,0-3.8128-.5264-5.4561-1.3808-2.104-1.052-4.1416-2.432-6.1136-3.7472-2.9584-1.972-5.9824-4.0096-9.4-5.0616-1.4464-.6568-3.0896-.9856-4.6672-1.3144-2.2352-.46-4.536-.9208-6.3768-2.3664-.6576-.3944-1.2488-.8552-1.9064-1.3152-1.7096-1.2488-3.4184-2.4976-5.3904-2.9576-.7232-.2632-1.4464-.3288-2.1696-.4608-1.0512-.1312-2.1032-.328-3.024-.9856-.3944-.3288-.8544-.592-1.2488-.9208-1.5776-1.1168-3.2208-2.3008-4.7984-3.1552-2.7608-1.38-5.7848-2.1032-9.072-2.8264-1.052-.2632-1.7088-1.052-2.432-1.9064-.46-.592-.9208-1.1832-1.5776-1.5776-2.564-2.0376-4.8648-3.3528-7.8888-3.3528h-.8544c-1.5776.1312-3.0896,1.3152-4.1416,2.1696-2.9576,2.6296-6.1792,4.9304-9.2688,7.1648-4.6016,3.3528-9.4,6.7712-13.476,11.2416-4.0096,4.1408-5.456,9.3344-6.9024,14.3304-.1968.7232-.3943,1.4464-.6568,2.2352-.3952,1.38-.7231,2.7608-1.052,4.1408-1.8408,7.3632-3.7472,14.7912-11.1096,19.524-.46.3288-.3288.9208.1312,1.1176.1976.0656,3.6816,1.1176,6.3768-1.972,1.9064-2.2352,2.892-4.4704,5.1272-6.8368.0656-.0656.3288-.3288.5264-.2632.1312,0,.1968.132.1312.3952-.2632.9856-.8544,1.7744-1.4464,2.6288-.5912.8552-1.1832,1.7096-1.4464,2.6952-.7232,2.104-2.6952,3.8128-4.404,5.3248,0,0-.2632.1976-.46.3944-.132.1976-.132.2632-.132.2632,0,.46.3288.7232,1.052.7888,4.1416,0,7.1-2.9584,9.9264-5.7848.1312-.1312.2632-.1976.46-.1976.1312,0,.2632,0,.46.0664.1976.0656.6576.5256.9864.8544.92.8544,1.9064,1.7088,3.1552,1.972,1.512-.1976,2.8928-.3944,4.2728-.3944h1.1176c1.512.46,3.024,1.052,4.4704,1.5776,1.0511.3944,2.1031.7888,3.1552,1.1176,1.38,0,2.3665-1.3152,3.0896-2.4984.3288-.7888.1968-1.5776,0-2.3664-.0656-.46-.1976-.92-.1312-1.38.2624-.132.5912-.132.9856,0h.9864c.3288,0,.7232-.4608.6568-.9864-.2624-1.38-.9856-2.2352-1.6432-3.2864-.5912-.9208-1.1832-1.7752-1.4464-2.6952-.46-1.2496-1.4456-2.3008-2.3664-3.3528-1.052-1.1832-2.1032-2.3008-2.432-3.6816,0,0-.0656-.3288,0-.3944s.3944,0,.3944,0c.5256.3288.9856.7888,1.4464,1.1832,1.5776,1.2496,3.1552,2.564,5.1272,2.8928,1.8408.1968,3.8128.3944,5.7848.2632.5256-.0664.7888-.5264.6576-.9864-.7888-1.6432-1.5776-3.4184-2.104-5.3904-.3944-1.4464-1.3144-5.3248-.3944-8.2168.0656-.2632.2632-.3944.46-.3944h.0664c.3288.0656.5256.46.5912.7224v.3944c.3288,3.9448.592,7.6912,2.9584,10.8472.6576,1.0512,1.5776,1.5776,2.4319,2.1032.592.3944,1.3152.6576,1.7752,1.2488.5256.6576.5912,1.7752.2624,2.4328l-2.9576,4.404c-.7232.9864-1.3808,2.0376-1.644,3.1552-.1968,1.1176-.1312,2.1696,0,3.2216v.2624s-.1312-.1312-.1968-.2624c-1.1832-2.1696-1.4464-4.0104-.8544-5.3904.3944-.9208,2.8264-4.3392,3.484-5.456.1968-.3288.3944-.7232.1968-.9864-.2624-.3288-2.0376-1.052-2.4976-1.052h-.0656c-.3944.132-.7232.5264-.9208.8544,0,.0664-.1312.132-.1968.2632l-3.6816,6.6392v.2632c-.2632.6576-.46,1.2488-.3288,2.0376.1976.9864.5264,2.0384.7231,2.8272,0,.1968.132.46.1976.6568.3288,1.1176.6568,2.2352,1.1176,2.8272.3288.3944.7232.5256,1.2488.5256.2632,0,.5912,0,.8544-.0656.46-.0656.9208-.1312,1.3152,0,.5256.1312.92.5256,1.3144.9864.3944.46.7888.8544,1.4464,1.0512,1.1176.3944,2.3008.6576,3.484.9864,1.512.3944,3.0896.7888,4.6016,1.38.8544.2632,1.7744.5264,2.6288.5264.9865,0,1.5784-.2632,2.4328-.9864,1.1832-.9856,1.5776-1.9064,1.8408-3.2864.2624-1.2496.6568-1.3808,1.5776-1.3808.46,0,.5256,0,.92-.1312.46-.132,1.7752-1.7752,2.4984-3.0896.1968-.3944.3943-.6576.5912-.9864.1976-.3288.2632-.5912.2632-.8544,0-.6576-.5264-.8544-.9208-.8544h-5.1928c-1.5776.0656-2.3008,1.6432-2.8928,2.9576-.1968.5264-.3944,1.052-.7232,1.4464-.3944.7888-1.2488,1.2488-2.3,1.1832-.2632,0-.9864-.1968-1.3152-.2624-2.1032-.5264-4.2728-1.052-5.1928-3.156-.0664-.328-.1976-1.1176.3288-1.7088,1.1168-1.3152,2.6288-2.9584,4.1408-4.1416,2.104-.46,4.2072-2.0376,5.3904-4.0096.2632-.3288.3944-.7232.5264-1.1176.1968-.592.3944-1.1832.92-1.512.3288-.1976.592-.1312.7232.1968.1968,1.1176-.1976,2.1696-.592,3.2216-.0656.2624-.1968.46-.2624.6568v.1976h.1312c.592,0,1.1832.0656,1.7752.0656,2.1688,0,4.2728-.3944,6.2448-.7232s4.0096-.7232,6.1792-.7232h.6576c.92,0,1.84.0664,2.7608.132.8544.0656,1.7744.1312,2.6952.1312h.92c2.6952-.1312,4.6672-1.3808,5.2592-3.2864.5912-1.644.5256-4.536-.1976-8.5464v-.3944c0-.1312,0-.3288.1976-.3944.2632-.1312.5256,0,.6576.3288,1.0512,2.8928,1.6432,6.1792,1.9064,8.48.328,2.2352,1.2488,4.4704,2.8264,6.8368,1.972,2.892,5.1272,4.536,8.7432,4.536.8544,0,1.7088-.132,2.5632-.2632.592-.0656.7888,0,1.1832,0,4.6016,0,8.612,1.972,11.636,5.7848v.1976c0,.1312-.2632.328-.4608.2624l-.3943-.3288c-2.6296-2.0376-5.324-4.0752-8.6768-4.5352-.592-.132-1.2488-.132-1.9064-.132-.9864,0-1.9064.132-2.8928.1976-.92.1312-1.7744.1968-2.6952.1968-1.1832,0-2.1032-.1968-3.0896-.5256-3.8784-1.2488-7.0336-5.7848-8.0856-8.5456,0-.0656-.1968-.2632-.3944-.2632-.1312,0-.1968,0-.3288.1312-.46.2632-.5256.4608-.5912.7232,0,.2632.3288,2.2352.46,3.0896.5256,2.104.8544,4.6016,4.0104,6.64,2.1032,1.38,2.6944,1.9064,4.9952,2.2344.3944,0,1.3808,0,1.7096-.0656.9857-.1968,1.972-.3288,3.024-.3288,3.2208,0,6.4416,1.1176,9.2032,3.0896.46.2632.92.592,1.3144.9864.592.5256,1.1832.9856,1.9064,1.2488.46.1976.92.2632,1.4464.2632,1.2488,0,1.5776-.3944,2.432-.7888.3944-.1976.7888-.2632,1.052-.2632.9856,0,1.5776.7888,2.2352,1.7752.3944.5912.92,1.2488,1.512,1.8408.92.8544,2.1688.9856,3.1552.9856.5256,0,1.052,0,1.6432-.0656.5256,0,1.1176,0,1.4464-.0656.3288,0,.5256-.0656.5256-.0656v-.132c-.2625-1.8408-.7232-3.6152-1.5776-5.5216l.46-.0656h.0002ZM573.9472,80.7904s-.592.5256-1.1832.5256c-.5264,0-1.052-.1312-1.3152-.3944-.7232-.5256-1.1832-1.4464-1.2488-2.564,0-.2624,0-.5256.3288-.7888.1968-.1312.2624-.1312.5256-.1312.7232,0,1.8408.46,2.432,1.1832,0,0,.9864,1.3144.5264,2.1696h-.0656ZM574.9984,64.4872c-.2624.3288-.6568.592-1.0512.3944-.3944-.1312-.7232-.5912-.9208-.9856-.2625-.46-.46-.8544-1.052-.7888h-.0656c-.5256,0-.92.3288-1.38.6568-.1976.1976-1.052.7888-1.2488.9864-1.184.9864-2.3016,1.972-2.6296,3.3528-.088.3504-.132.5912-.132.7232-.0656.46-.1968.9856-.5912,1.2488h-.1976c-.1968,0-.3288-.0656-.5256-.1976-.132-.1312-.2632-.2624-.2632-.46-.1968-2.3664.592-4.4704,2.2352-5.9816,1.052-.8552,1.9064-1.9728,2.7608-3.024.3943-.5264.8544-1.052,1.2488-1.5776.3288-.3288.8552,0,1.7752.92.3944.3944,1.512,2.3664,2.0376,3.6816.1976.5912,0,.9856,0,.9856v.0656h-.0001ZM594.4568,37.1408c-.46.3944-.92.8544-1.3808,1.2488-1.6432,1.512-3.352,3.0896-4.4696,4.7992-.5264.7232-.9208,1.5776-1.3152,2.3664,0,.0656-.1312.2632-.3288.2632-.0656,0-.1968,0-.2624-.132-.3288-.328,0-2.5632.3288-3.6152.92-2.432,2.9576-5.0616,5.6528-7.0336.2632-.1976.6576-.2632.9865-.2632.5256,0,.92.2632,1.0519.6576.328.5256.1968,1.1832-.3943,1.7744l.1312-.0656h-.0001Z"/>

</svg>