<svg viewBox="0 0 64 64" xmlns="http://www.w3.org/2000/svg" role="img" aria-labelledby="openaiTitle">
  <title id="openaiTitle">OpenAI</title>
  <g fill="none" stroke="#E8EEF7" stroke-linecap="round" stroke-linejoin="round" stroke-width="4.5">
    <path d="M31.8 10.5c4.8-2.9 11-.4 12.8 5.5 4.9-1.2 10 1.6 11.4 6.5 1.4 4.9-1.2 10-5.9 11.8 2.1 4.7.3 10.4-4.2 12.9-4.4 2.6-10.1 1.2-12.9-3.1-3.8 3.6-9.9 3.9-14 .5-4.1-3.5-5-9.5-2.1-14.1-4.7-1.8-7.4-6.8-6-11.7 1.4-4.9 6.4-7.9 11.4-6.7 1.4-5 6.8-8 11.7-6.7"/>
    <path d="M22.2 18.8 32 13l9.8 5.7v11.1L32 35.5l-9.8-5.7Z"/>
    <path d="M22.2 30.1 15.3 42l6.9 11.8H36l6.9-11.8L36 30.1Z"/>
  </g>
</svg>
